<svg width="268" height="276" viewBox="0 0 268 276" fill="none" xmlns="http://www.w3.org/2000/svg">
<g clip-path="url(#clip0_33_489)">
<path d="M115.516 3.24582C117.142 3.24582 118.558 2.25114 119.187 0.785278C116.932 1.04704 114.677 1.3088 112.475 1.67526C113.209 2.6176 114.258 3.24582 115.516 3.24582Z" fill="#B5BBC5"/>
<path d="M134.131 3.24583C136.019 3.24583 137.539 1.88467 137.906 0.104704C136.648 0.052352 135.337 0 134.026 0C132.768 0 131.562 0.052352 130.356 0.104704C130.723 1.88467 132.243 3.24583 134.131 3.24583Z" fill="#B5BBC5"/>
<path d="M63.7096 19.2132C61.8219 20.3126 59.9867 21.4643 58.1514 22.6684C58.6758 22.8778 59.2001 23.0349 59.7769 23.0349C61.8744 23.0349 63.6048 21.3596 63.7096 19.2132Z" fill="#B5BBC5"/>
<path d="M78.3393 15.1298C76.1369 15.1298 74.3541 16.9097 74.3541 19.1085C74.3541 21.3073 76.1369 23.0873 78.3393 23.0873C80.5416 23.0873 82.3244 21.3073 82.3244 19.1085C82.3244 16.9097 80.5416 15.1298 78.3393 15.1298Z" fill="#B5BBC5"/>
<path d="M96.954 15.1298C94.7517 15.1298 92.9689 16.9097 92.9689 19.1085C92.9689 21.3073 94.7517 23.0873 96.954 23.0873C99.1563 23.0873 100.939 21.3073 100.939 19.1085C100.887 16.9097 99.1039 15.1298 96.954 15.1298Z" fill="#B5BBC5"/>
<path d="M115.516 15.1298C113.314 15.1298 111.531 16.9097 111.531 19.1085C111.531 21.3073 113.314 23.0873 115.516 23.0873C117.719 23.0873 119.501 21.3073 119.501 19.1085C119.501 16.9097 117.719 15.1298 115.516 15.1298Z" fill="#B5BBC5"/>
<path d="M134.131 15.1298C131.929 15.1298 130.146 16.9097 130.146 19.1085C130.146 21.3073 131.929 23.0873 134.131 23.0873C136.333 23.0873 138.116 21.3073 138.116 19.1085C138.064 16.9097 136.333 15.1298 134.131 15.1298Z" fill="#B5BBC5"/>
<path d="M41.1622 42.8763C43.3645 42.8763 45.1473 41.0964 45.1473 38.8976C45.0949 37.0129 43.7316 35.4947 41.9487 35.1282C40.3232 36.5417 38.8026 37.9552 37.282 39.4211C37.5441 41.3581 39.1696 42.8763 41.1622 42.8763Z" fill="#B5BBC5"/>
<path d="M59.7245 34.9712C57.5222 34.9712 55.7394 36.7512 55.7394 38.9499C55.7394 41.1487 57.5222 42.9287 59.7245 42.9287C61.9268 42.9287 63.7096 41.1487 63.7096 38.9499C63.7096 36.7512 61.9268 34.9712 59.7245 34.9712Z" fill="#B5BBC5"/>
<path d="M78.3393 34.9712C76.1369 34.9712 74.3541 36.7512 74.3541 38.9499C74.3541 41.1487 76.1369 42.9287 78.3393 42.9287C80.5416 42.9287 82.3244 41.1487 82.3244 38.9499C82.3244 36.7512 80.5416 34.9712 78.3393 34.9712Z" fill="#B5BBC5"/>
<path d="M96.954 34.9712C94.7517 34.9712 92.9689 36.7512 92.9689 38.9499C92.9689 41.1487 94.7517 42.9287 96.954 42.9287C99.1563 42.9287 100.939 41.1487 100.939 38.9499C100.887 36.7512 99.1039 34.9712 96.954 34.9712Z" fill="#B5BBC5"/>
<path d="M115.516 34.9712C113.314 34.9712 111.531 36.7512 111.531 38.9499C111.531 41.1487 113.314 42.9287 115.516 42.9287C117.719 42.9287 119.501 41.1487 119.501 38.9499C119.501 36.7512 117.719 34.9712 115.516 34.9712Z" fill="#B5BBC5"/>
<path d="M134.131 34.9712C131.929 34.9712 130.146 36.7512 130.146 38.9499C130.146 41.1487 131.929 42.9287 134.131 42.9287C136.333 42.9287 138.116 41.1487 138.116 38.9499C138.064 36.7512 136.333 34.9712 134.131 34.9712Z" fill="#B5BBC5"/>
<path d="M22.5474 62.6654C24.7497 62.6654 26.5326 60.8854 26.5326 58.6867C26.5326 56.8543 25.2741 55.3885 23.5962 54.9697C22.1279 56.9067 20.7122 58.8961 19.3488 60.8854C20.0829 61.9325 21.1841 62.6654 22.5474 62.6654Z" fill="#B5BBC5"/>
<path d="M41.1622 54.7603C38.9599 54.7603 37.1771 56.5402 37.1771 58.739C37.1771 60.9378 38.9599 62.7178 41.1622 62.7178C43.3645 62.7178 45.1473 60.9378 45.1473 58.739C45.0949 56.5402 43.3645 54.7603 41.1622 54.7603Z" fill="#B5BBC5"/>
<path d="M59.7245 54.7603C57.5222 54.7603 55.7394 56.5402 55.7394 58.739C55.7394 60.9378 57.5222 62.7178 59.7245 62.7178C61.9268 62.7178 63.7096 60.9378 63.7096 58.739C63.7096 56.5402 61.9268 54.7603 59.7245 54.7603Z" fill="#B5BBC5"/>
<path d="M78.3393 54.7603C76.1369 54.7603 74.3541 56.5402 74.3541 58.739C74.3541 60.9378 76.1369 62.7178 78.3393 62.7178C80.5416 62.7178 82.3244 60.9378 82.3244 58.739C82.3244 56.5402 80.5416 54.7603 78.3393 54.7603Z" fill="#B5BBC5"/>
<path d="M96.954 54.7603C94.7517 54.7603 92.9689 56.5402 92.9689 58.739C92.9689 60.9378 94.7517 62.7178 96.954 62.7178C99.1563 62.7178 100.939 60.9378 100.939 58.739C100.887 56.5402 99.1039 54.7603 96.954 54.7603Z" fill="#B5BBC5"/>
<path d="M115.516 54.7603C113.314 54.7603 111.531 56.5402 111.531 58.739C111.531 60.9378 113.314 62.7178 115.516 62.7178C117.719 62.7178 119.501 60.9378 119.501 58.739C119.501 56.5402 117.719 54.7603 115.516 54.7603Z" fill="#B5BBC5"/>
<path d="M134.131 54.7603C131.929 54.7603 130.146 56.5402 130.146 58.739C130.146 60.9378 131.929 62.7178 134.131 62.7178C136.333 62.7178 138.116 60.9378 138.116 58.739C138.064 56.5402 136.333 54.7603 134.131 54.7603Z" fill="#B5BBC5"/>
<path d="M22.5474 74.6017C20.3451 74.6017 18.5623 76.3817 18.5623 78.5804C18.5623 80.7792 20.3451 82.5592 22.5474 82.5592C24.7498 82.5592 26.5326 80.7792 26.5326 78.5804C26.5326 76.3293 24.7498 74.6017 22.5474 74.6017Z" fill="#B5BBC5"/>
<path d="M41.1622 74.6017C38.9599 74.6017 37.1771 76.3817 37.1771 78.5804C37.1771 80.7792 38.9599 82.5592 41.1622 82.5592C43.3645 82.5592 45.1473 80.7792 45.1473 78.5804C45.0949 76.3293 43.3645 74.6017 41.1622 74.6017Z" fill="#B5BBC5"/>
<path d="M59.7245 74.6017C57.5222 74.6017 55.7394 76.3817 55.7394 78.5804C55.7394 80.7792 57.5222 82.5592 59.7245 82.5592C61.9268 82.5592 63.7096 80.7792 63.7096 78.5804C63.7096 76.3293 61.9268 74.6017 59.7245 74.6017Z" fill="#B5BBC5"/>
<path d="M78.3393 74.6017C76.1369 74.6017 74.3541 76.3817 74.3541 78.5804C74.3541 80.7792 76.1369 82.5592 78.3393 82.5592C80.5416 82.5592 82.3244 80.7269 82.3244 78.5281C82.3244 76.3293 80.5416 74.6017 78.3393 74.6017Z" fill="#B5BBC5"/>
<path d="M96.954 74.6017C94.7517 74.6017 92.9689 76.3817 92.9689 78.5804C92.9689 80.7792 94.7517 82.5592 96.954 82.5592C99.1563 82.5592 100.939 80.7792 100.939 78.5804C100.887 76.3293 99.1039 74.6017 96.954 74.6017Z" fill="#B5BBC5"/>
<path d="M115.516 74.6017C113.314 74.6017 111.531 76.3817 111.531 78.5804C111.531 80.7792 113.314 82.5592 115.516 82.5592C117.719 82.5592 119.501 80.7792 119.501 78.5804C119.501 76.3293 117.719 74.6017 115.516 74.6017Z" fill="#B5BBC5"/>
<path d="M134.131 74.6017C131.929 74.6017 130.146 76.3817 130.146 78.5804C130.146 80.7792 131.929 82.5592 134.131 82.5592C136.333 82.5592 138.116 80.7792 138.116 78.5804C138.064 76.3293 136.333 74.6017 134.131 74.6017Z" fill="#B5BBC5"/>
<path d="M3.98513 102.296C6.18744 102.296 7.97026 100.516 7.97026 98.3171C7.97026 96.1183 6.18744 94.3384 3.98513 94.3384C3.56564 94.3384 3.19859 94.4431 2.83154 94.5478C2.14987 96.5895 1.52064 98.6312 0.943848 100.725C1.62551 101.668 2.72667 102.296 3.98513 102.296Z" fill="#B5BBC5"/>
<path d="M22.5474 94.3907C20.3451 94.3907 18.5623 96.1707 18.5623 98.3695C18.5623 100.568 20.3451 102.348 22.5474 102.348C24.7498 102.348 26.5326 100.568 26.5326 98.3695C26.5326 96.1707 24.7498 94.3907 22.5474 94.3907Z" fill="#B5BBC5"/>
<path d="M41.1622 94.3907C38.9599 94.3907 37.1771 96.1707 37.1771 98.3695C37.1771 100.568 38.9599 102.348 41.1622 102.348C43.3645 102.348 45.1473 100.568 45.1473 98.3695C45.0949 96.1707 43.3645 94.3907 41.1622 94.3907Z" fill="#B5BBC5"/>
<path d="M59.7245 94.3907C57.5222 94.3907 55.7394 96.1707 55.7394 98.3695C55.7394 100.568 57.5222 102.348 59.7245 102.348C61.9268 102.348 63.7096 100.568 63.7096 98.3695C63.7096 96.1707 61.9268 94.3907 59.7245 94.3907Z" fill="#B5BBC5"/>
<path d="M78.3393 94.3907C76.1369 94.3907 74.3541 96.1707 74.3541 98.3695C74.3541 100.568 76.1369 102.348 78.3393 102.348C80.5416 102.348 82.3244 100.568 82.3244 98.3695C82.3244 96.1707 80.5416 94.3907 78.3393 94.3907Z" fill="#B5BBC5"/>
<path d="M96.954 94.3907C94.7517 94.3907 92.9689 96.1707 92.9689 98.3695C92.9689 100.568 94.7517 102.348 96.954 102.348C99.1563 102.348 100.939 100.568 100.939 98.3695C100.887 96.1707 99.1039 94.3907 96.954 94.3907Z" fill="#B5BBC5"/>
<path d="M115.516 94.3907C113.314 94.3907 111.531 96.1707 111.531 98.3695C111.531 100.568 113.314 102.348 115.516 102.348C117.719 102.348 119.501 100.568 119.501 98.3695C119.501 96.1707 117.719 94.3907 115.516 94.3907Z" fill="#B5BBC5"/>
<path d="M134.131 94.3907C131.929 94.3907 130.146 96.1707 130.146 98.3695C130.146 100.568 131.929 102.348 134.131 102.348C136.333 102.348 138.116 100.568 138.116 98.3695C138.064 96.1707 136.333 94.3907 134.131 94.3907Z" fill="#B5BBC5"/>
<path d="M3.98513 114.18C1.78282 114.18 0 115.96 0 118.159C0 120.357 1.78282 122.137 3.98513 122.137C6.18744 122.137 7.97026 120.357 7.97026 118.159C7.91782 115.96 6.135 114.18 3.98513 114.18Z" fill="#B5BBC5"/>
<path d="M22.5474 114.18C20.3451 114.18 18.5623 115.96 18.5623 118.159C18.5623 120.357 20.3451 122.137 22.5474 122.137C24.7498 122.137 26.5326 120.357 26.5326 118.159C26.5326 115.96 24.7498 114.18 22.5474 114.18Z" fill="#B5BBC5"/>
<path d="M41.1622 114.18C38.9599 114.18 37.1771 115.96 37.1771 118.159C37.1771 120.357 38.9599 122.137 41.1622 122.137C43.3645 122.137 45.1473 120.357 45.1473 118.159C45.0949 115.96 43.3645 114.18 41.1622 114.18Z" fill="#B5BBC5"/>
<path d="M59.7245 114.18C57.5222 114.18 55.7394 115.96 55.7394 118.159C55.7394 120.357 57.5222 122.137 59.7245 122.137C61.9268 122.137 63.7096 120.357 63.7096 118.159C63.7096 115.96 61.9268 114.18 59.7245 114.18Z" fill="#B5BBC5"/>
<path d="M78.3393 114.18C76.1369 114.18 74.3541 115.96 74.3541 118.159C74.3541 120.357 76.1369 122.137 78.3393 122.137C80.5416 122.137 82.3244 120.357 82.3244 118.159C82.3244 115.96 80.5416 114.18 78.3393 114.18Z" fill="#B5BBC5"/>
<path d="M96.954 114.18C94.7517 114.18 92.9689 115.96 92.9689 118.159C92.9689 120.357 94.7517 122.137 96.954 122.137C99.1563 122.137 100.939 120.357 100.939 118.159C100.887 115.96 99.1039 114.18 96.954 114.18Z" fill="#B5BBC5"/>
<path d="M115.516 114.18C113.314 114.18 111.531 115.96 111.531 118.159C111.531 120.357 113.314 122.137 115.516 122.137C117.719 122.137 119.501 120.357 119.501 118.159C119.501 115.96 117.719 114.18 115.516 114.18Z" fill="#B5BBC5"/>
<path d="M134.131 114.18C131.929 114.18 130.146 115.96 130.146 118.159C130.146 120.357 131.929 122.137 134.131 122.137C136.333 122.137 138.116 120.357 138.116 118.159C138.064 115.96 136.333 114.18 134.131 114.18Z" fill="#B5BBC5"/>
<path d="M3.98513 134.021C1.78282 134.021 0 135.801 0 137.948C0 140.146 1.78282 141.926 3.98513 141.926C6.18744 141.926 7.97026 140.146 7.97026 137.948C7.91782 135.801 6.135 134.021 3.98513 134.021Z" fill="#B5BBC5"/>
<path d="M22.5474 134.021C20.3451 134.021 18.5623 135.801 18.5623 138C18.5623 140.199 20.3451 141.979 22.5474 141.979C24.7498 141.979 26.5326 140.199 26.5326 138C26.5326 135.801 24.7498 134.021 22.5474 134.021Z" fill="#B5BBC5"/>
<path d="M41.1622 134.021C38.9599 134.021 37.1771 135.801 37.1771 138C37.1771 140.199 38.9599 141.979 41.1622 141.979C43.3645 141.979 45.1473 140.199 45.1473 138C45.0949 135.801 43.3645 134.021 41.1622 134.021Z" fill="#B5BBC5"/>
<path d="M59.7245 134.021C57.5222 134.021 55.7394 135.801 55.7394 138C55.7394 140.199 57.5222 141.979 59.7245 141.979C61.9268 141.979 63.7096 140.199 63.7096 138C63.7096 135.801 61.9268 134.021 59.7245 134.021Z" fill="#B5BBC5"/>
<path d="M78.3393 134.021C76.1369 134.021 74.3541 135.801 74.3541 138C74.3541 140.199 76.1369 141.979 78.3393 141.979C80.5416 141.979 82.3244 140.199 82.3244 138C82.3244 135.801 80.5416 134.021 78.3393 134.021Z" fill="#B5BBC5"/>
<path d="M96.954 134.021C94.7517 134.021 92.9689 135.801 92.9689 138C92.9689 140.199 94.7517 141.979 96.954 141.979C99.1563 141.979 100.939 140.199 100.939 138C100.887 135.801 99.1039 134.021 96.954 134.021Z" fill="#B5BBC5"/>
<path d="M115.516 134.021C113.314 134.021 111.531 135.801 111.531 138C111.531 140.199 113.314 141.979 115.516 141.979C117.719 141.979 119.501 140.199 119.501 138C119.501 135.801 117.719 134.021 115.516 134.021Z" fill="#B5BBC5"/>
<path d="M134.131 134.021C131.929 134.021 130.146 135.801 130.146 138C130.146 140.199 131.929 141.979 134.131 141.979C136.333 141.979 138.116 140.199 138.116 138C138.064 135.801 136.333 134.021 134.131 134.021Z" fill="#B5BBC5"/>
<path d="M152.484 3.24582C153.742 3.24582 154.843 2.6176 155.577 1.67526C153.375 1.3088 151.12 1.04704 148.866 0.785278C149.442 2.25114 150.858 3.24582 152.484 3.24582Z" fill="#B5BBC5"/>
<path d="M152.484 15.1298C150.281 15.1298 148.499 16.9097 148.499 19.1085C148.499 21.3073 150.281 23.0873 152.484 23.0873C154.686 23.0873 156.469 21.3073 156.469 19.1085C156.469 16.9097 154.686 15.1298 152.484 15.1298Z" fill="#B5BBC5"/>
<path d="M171.098 15.1298C168.896 15.1298 167.113 16.9097 167.113 19.1085C167.113 21.3073 168.896 23.0873 171.098 23.0873C173.301 23.0873 175.084 21.3073 175.084 19.1085C175.031 16.9097 173.248 15.1298 171.098 15.1298Z" fill="#B5BBC5"/>
<path d="M189.661 15.1298C187.458 15.1298 185.676 16.9097 185.676 19.1085C185.676 21.3073 187.458 23.0873 189.661 23.0873C191.863 23.0873 193.646 21.3073 193.646 19.1085C193.646 16.9097 191.863 15.1298 189.661 15.1298Z" fill="#B5BBC5"/>
<path d="M208.275 23.0349C208.852 23.0349 209.429 22.8778 209.901 22.6684C208.066 21.4643 206.23 20.3126 204.343 19.2132C204.395 21.3596 206.126 23.0349 208.275 23.0349Z" fill="#B5BBC5"/>
<path d="M152.484 34.9712C150.281 34.9712 148.499 36.7512 148.499 38.9499C148.499 41.1487 150.281 42.9287 152.484 42.9287C154.686 42.9287 156.469 41.1487 156.469 38.9499C156.469 36.7512 154.686 34.9712 152.484 34.9712Z" fill="#B5BBC5"/>
<path d="M171.098 34.9712C168.896 34.9712 167.113 36.7512 167.113 38.9499C167.113 41.1487 168.896 42.9287 171.098 42.9287C173.301 42.9287 175.084 41.1487 175.084 38.9499C175.031 36.7512 173.248 34.9712 171.098 34.9712Z" fill="#B5BBC5"/>
<path d="M189.661 34.9712C187.458 34.9712 185.676 36.7512 185.676 38.9499C185.676 41.1487 187.458 42.9287 189.661 42.9287C191.863 42.9287 193.646 41.1487 193.646 38.9499C193.646 36.7512 191.863 34.9712 189.661 34.9712Z" fill="#B5BBC5"/>
<path d="M208.275 34.9712C206.073 34.9712 204.29 36.7512 204.29 38.9499C204.29 41.1487 206.073 42.9287 208.275 42.9287C210.478 42.9287 212.261 41.1487 212.261 38.9499C212.261 36.7512 210.478 34.9712 208.275 34.9712Z" fill="#B5BBC5"/>
<path d="M222.905 38.8976C222.905 41.0964 224.688 42.8763 226.89 42.8763C228.883 42.8763 230.456 41.3581 230.718 39.4735C229.197 38.0076 227.677 36.5417 226.104 35.1282C224.321 35.4947 222.905 37.0129 222.905 38.8976Z" fill="#B5BBC5"/>
<path d="M152.484 54.7603C150.281 54.7603 148.499 56.5402 148.499 58.739C148.499 60.9378 150.281 62.7178 152.484 62.7178C154.686 62.7178 156.469 60.9378 156.469 58.739C156.469 56.5402 154.686 54.7603 152.484 54.7603Z" fill="#B5BBC5"/>
<path d="M171.098 54.7603C168.896 54.7603 167.113 56.5402 167.113 58.739C167.113 60.9378 168.896 62.7178 171.098 62.7178C173.301 62.7178 175.084 60.9378 175.084 58.739C175.031 56.5402 173.248 54.7603 171.098 54.7603Z" fill="#B5BBC5"/>
<path d="M189.661 54.7603C187.458 54.7603 185.676 56.5402 185.676 58.739C185.676 60.9378 187.458 62.7178 189.661 62.7178C191.863 62.7178 193.646 60.9378 193.646 58.739C193.646 56.5402 191.863 54.7603 189.661 54.7603Z" fill="#B5BBC5"/>
<path d="M208.275 54.7603C206.073 54.7603 204.29 56.5402 204.29 58.739C204.29 60.9378 206.073 62.7178 208.275 62.7178C210.478 62.7178 212.261 60.9378 212.261 58.739C212.261 56.5402 210.478 54.7603 208.275 54.7603Z" fill="#B5BBC5"/>
<path d="M226.89 54.7603C224.688 54.7603 222.905 56.5402 222.905 58.739C222.905 60.9378 224.688 62.7178 226.89 62.7178C229.093 62.7178 230.875 60.9378 230.875 58.739C230.823 56.5402 229.04 54.7603 226.89 54.7603Z" fill="#B5BBC5"/>
<path d="M241.52 58.739C241.52 60.9378 243.303 62.7177 245.505 62.7177C246.868 62.7177 248.022 61.9848 248.704 60.9378C247.34 58.896 245.925 56.959 244.456 55.022C242.778 55.4408 241.52 56.9066 241.52 58.739Z" fill="#B5BBC5"/>
<path d="M152.484 74.6017C150.281 74.6017 148.499 76.3817 148.499 78.5804C148.499 80.7792 150.281 82.5592 152.484 82.5592C154.686 82.5592 156.469 80.7792 156.469 78.5804C156.469 76.3293 154.686 74.6017 152.484 74.6017Z" fill="#B5BBC5"/>
<path d="M171.098 74.6017C168.896 74.6017 167.113 76.3817 167.113 78.5804C167.113 80.7792 168.896 82.5592 171.098 82.5592C173.301 82.5592 175.084 80.7792 175.084 78.5804C175.031 76.3293 173.248 74.6017 171.098 74.6017Z" fill="#B5BBC5"/>
<path d="M189.661 74.6017C187.458 74.6017 185.676 76.3817 185.676 78.5804C185.676 80.7792 187.458 82.5592 189.661 82.5592C191.863 82.5592 193.646 80.7792 193.646 78.5804C193.646 76.3293 191.863 74.6017 189.661 74.6017Z" fill="#B5BBC5"/>
<path d="M208.275 74.6017C206.073 74.6017 204.29 76.3817 204.29 78.5804C204.29 80.7792 206.073 82.5592 208.275 82.5592C210.478 82.5592 212.261 80.7792 212.261 78.5804C212.261 76.3293 210.478 74.6017 208.275 74.6017Z" fill="#B5BBC5"/>
<path d="M226.89 74.6017C224.688 74.6017 222.905 76.3817 222.905 78.5804C222.905 80.7792 224.688 82.5592 226.89 82.5592C229.093 82.5592 230.875 80.7792 230.875 78.5804C230.823 76.3293 229.04 74.6017 226.89 74.6017Z" fill="#B5BBC5"/>
<path d="M245.453 74.6017C243.25 74.6017 241.467 76.3817 241.467 78.5804C241.467 80.7792 243.25 82.5592 245.453 82.5592C247.655 82.5592 249.438 80.7792 249.438 78.5804C249.438 76.3293 247.655 74.6017 245.453 74.6017Z" fill="#B5BBC5"/>
<path d="M152.484 94.3907C150.281 94.3907 148.499 96.1707 148.499 98.3695C148.499 100.568 150.281 102.348 152.484 102.348C154.686 102.348 156.469 100.568 156.469 98.3695C156.469 96.1707 154.686 94.3907 152.484 94.3907Z" fill="#B5BBC5"/>
<path d="M171.098 94.3907C168.896 94.3907 167.113 96.1707 167.113 98.3695C167.113 100.568 168.896 102.348 171.098 102.348C173.301 102.348 175.084 100.568 175.084 98.3695C175.031 96.1707 173.248 94.3907 171.098 94.3907Z" fill="#B5BBC5"/>
<path d="M189.661 94.3907C187.458 94.3907 185.676 96.1707 185.676 98.3695C185.676 100.568 187.458 102.348 189.661 102.348C191.863 102.348 193.646 100.568 193.646 98.3695C193.646 96.1707 191.863 94.3907 189.661 94.3907Z" fill="#B5BBC5"/>
<path d="M208.275 94.3907C206.073 94.3907 204.29 96.1707 204.29 98.3695C204.29 100.568 206.073 102.348 208.275 102.348C210.478 102.348 212.261 100.568 212.261 98.3695C212.261 96.1707 210.478 94.3907 208.275 94.3907Z" fill="#B5BBC5"/>
<path d="M226.89 94.3907C224.688 94.3907 222.905 96.1707 222.905 98.3695C222.905 100.568 224.688 102.348 226.89 102.348C229.093 102.348 230.875 100.568 230.875 98.3695C230.823 96.1707 229.04 94.3907 226.89 94.3907Z" fill="#B5BBC5"/>
<path d="M245.453 94.3907C243.25 94.3907 241.467 96.1707 241.467 98.3695C241.467 100.568 243.25 102.348 245.453 102.348C247.655 102.348 249.438 100.568 249.438 98.3695C249.438 96.1707 247.655 94.3907 245.453 94.3907Z" fill="#B5BBC5"/>
<path d="M260.082 98.3695C260.082 100.568 261.865 102.348 264.067 102.348C265.326 102.348 266.374 101.72 267.109 100.83C266.532 98.7359 265.903 96.6942 265.221 94.6525C264.854 94.5478 264.487 94.4431 264.067 94.4431C261.865 94.3907 260.082 96.1707 260.082 98.3695Z" fill="#B5BBC5"/>
<path d="M152.484 114.18C150.281 114.18 148.499 115.96 148.499 118.159C148.499 120.357 150.281 122.137 152.484 122.137C154.686 122.137 156.469 120.357 156.469 118.159C156.469 115.96 154.686 114.18 152.484 114.18Z" fill="#B5BBC5"/>
<path d="M171.098 114.18C168.896 114.18 167.113 115.96 167.113 118.159C167.113 120.357 168.896 122.137 171.098 122.137C173.301 122.137 175.084 120.357 175.084 118.159C175.031 115.96 173.248 114.18 171.098 114.18Z" fill="#B5BBC5"/>
<path d="M189.661 114.18C187.458 114.18 185.676 115.96 185.676 118.159C185.676 120.357 187.458 122.137 189.661 122.137C191.863 122.137 193.646 120.357 193.646 118.159C193.646 115.96 191.863 114.18 189.661 114.18Z" fill="#B5BBC5"/>
<path d="M208.275 114.18C206.073 114.18 204.29 115.96 204.29 118.159C204.29 120.357 206.073 122.137 208.275 122.137C210.478 122.137 212.261 120.357 212.261 118.159C212.261 115.96 210.478 114.18 208.275 114.18Z" fill="#B5BBC5"/>
<path d="M226.89 114.18C224.688 114.18 222.905 115.96 222.905 118.159C222.905 120.357 224.688 122.137 226.89 122.137C229.093 122.137 230.875 120.357 230.875 118.159C230.823 115.96 229.04 114.18 226.89 114.18Z" fill="#B5BBC5"/>
<path d="M245.453 114.18C243.25 114.18 241.467 115.96 241.467 118.159C241.467 120.357 243.25 122.137 245.453 122.137C247.655 122.137 249.438 120.357 249.438 118.159C249.438 115.96 247.655 114.18 245.453 114.18Z" fill="#B5BBC5"/>
<path d="M264.067 114.18C261.865 114.18 260.082 115.96 260.082 118.159C260.082 120.357 261.865 122.137 264.067 122.137C266.27 122.137 268.052 120.357 268.052 118.159C268 115.96 266.27 114.18 264.067 114.18Z" fill="#B5BBC5"/>
<path d="M152.484 134.021C150.281 134.021 148.499 135.801 148.499 138C148.499 140.199 150.281 141.979 152.484 141.979C154.686 141.979 156.469 140.199 156.469 138C156.469 135.801 154.686 134.021 152.484 134.021Z" fill="#B5BBC5"/>
<path d="M171.098 134.021C168.896 134.021 167.113 135.801 167.113 138C167.113 140.199 168.896 141.979 171.098 141.979C173.301 141.979 175.084 140.199 175.084 138C175.031 135.801 173.248 134.021 171.098 134.021Z" fill="#B5BBC5"/>
<path d="M189.661 134.021C187.458 134.021 185.676 135.801 185.676 138C185.676 140.199 187.458 141.979 189.661 141.979C191.863 141.979 193.646 140.199 193.646 138C193.646 135.801 191.863 134.021 189.661 134.021Z" fill="#B5BBC5"/>
<path d="M208.275 134.021C206.073 134.021 204.29 135.801 204.29 138C204.29 140.199 206.073 141.979 208.275 141.979C210.478 141.979 212.261 140.199 212.261 138C212.261 135.801 210.478 134.021 208.275 134.021Z" fill="#B5BBC5"/>
<path d="M226.89 134.021C224.688 134.021 222.905 135.801 222.905 138C222.905 140.199 224.688 141.979 226.89 141.979C229.093 141.979 230.875 140.199 230.875 138C230.823 135.801 229.04 134.021 226.89 134.021Z" fill="#B5BBC5"/>
<path d="M245.453 134.021C243.25 134.021 241.467 135.801 241.467 138C241.467 140.199 243.25 141.979 245.453 141.979C247.655 141.979 249.438 140.199 249.438 138C249.438 135.801 247.655 134.021 245.453 134.021Z" fill="#B5BBC5"/>
<path d="M264.067 134.021C261.865 134.021 260.082 135.801 260.082 138C260.082 140.199 261.865 141.979 264.067 141.979C266.27 141.979 268.052 140.199 268.052 138C268 135.801 266.27 134.021 264.067 134.021Z" fill="#B5BBC5"/>
<path d="M3.98513 153.915C1.78282 153.915 0 155.695 0 157.841C0 160.04 1.78282 161.82 3.98513 161.82C6.18744 161.82 7.97026 160.04 7.97026 157.841C7.91782 155.695 6.135 153.915 3.98513 153.915Z" fill="#B5BBC5"/>
<path d="M22.5474 153.915C20.3451 153.915 18.5623 155.695 18.5623 157.894C18.5623 160.093 20.3451 161.873 22.5474 161.873C24.7498 161.873 26.5326 160.093 26.5326 157.894C26.5326 155.695 24.7498 153.915 22.5474 153.915Z" fill="#B5BBC5"/>
<path d="M41.1622 153.915C38.9599 153.915 37.1771 155.695 37.1771 157.894C37.1771 160.093 38.9599 161.873 41.1622 161.873C43.3645 161.873 45.1473 160.093 45.1473 157.894C45.0949 155.695 43.3645 153.915 41.1622 153.915Z" fill="#B5BBC5"/>
<path d="M59.7245 153.915C57.5222 153.915 55.7394 155.695 55.7394 157.894C55.7394 160.093 57.5222 161.873 59.7245 161.873C61.9268 161.873 63.7096 160.093 63.7096 157.894C63.7096 155.695 61.9268 153.915 59.7245 153.915Z" fill="#B5BBC5"/>
<path d="M78.3393 153.915C76.1369 153.915 74.3541 155.695 74.3541 157.894C74.3541 160.093 76.1369 161.873 78.3393 161.873C80.5416 161.873 82.3244 160.093 82.3244 157.894C82.3244 155.695 80.5416 153.915 78.3393 153.915Z" fill="#B5BBC5"/>
<path d="M96.954 153.915C94.7517 153.915 92.9689 155.695 92.9689 157.894C92.9689 160.093 94.7517 161.873 96.954 161.873C99.1563 161.873 100.939 160.093 100.939 157.894C100.887 155.695 99.1039 153.915 96.954 153.915Z" fill="#B5BBC5"/>
<path d="M115.516 153.915C113.314 153.915 111.531 155.695 111.531 157.894C111.531 160.093 113.314 161.873 115.516 161.873C117.719 161.873 119.501 160.093 119.501 157.894C119.501 155.695 117.719 153.915 115.516 153.915Z" fill="#B5BBC5"/>
<path d="M134.131 153.915C131.929 153.915 130.146 155.695 130.146 157.894C130.146 160.093 131.929 161.873 134.131 161.873C136.333 161.873 138.116 160.093 138.116 157.894C138.064 155.695 136.333 153.915 134.131 153.915Z" fill="#B5BBC5"/>
<path d="M7.91783 177.683C7.91783 175.484 6.13501 173.704 3.9327 173.704C2.67424 173.704 1.62552 174.332 0.891418 175.222C1.46821 177.316 2.09744 179.358 2.77911 181.4C3.14616 181.505 3.51321 181.609 3.9327 181.609C6.13501 181.609 7.91783 179.829 7.91783 177.683Z" fill="#B5BBC5"/>
<path d="M22.5474 173.704C20.3451 173.704 18.5623 175.484 18.5623 177.683C18.5623 179.882 20.3451 181.662 22.5474 181.662C24.7498 181.662 26.5326 179.882 26.5326 177.683C26.5326 175.484 24.7498 173.704 22.5474 173.704Z" fill="#B5BBC5"/>
<path d="M41.1622 173.704C38.9599 173.704 37.1771 175.484 37.1771 177.683C37.1771 179.882 38.9599 181.662 41.1622 181.662C43.3645 181.662 45.1473 179.882 45.1473 177.683C45.0949 175.484 43.3645 173.704 41.1622 173.704Z" fill="#B5BBC5"/>
<path d="M59.7245 173.704C57.5222 173.704 55.7394 175.484 55.7394 177.683C55.7394 179.882 57.5222 181.662 59.7245 181.662C61.9268 181.662 63.7096 179.882 63.7096 177.683C63.7096 175.484 61.9268 173.704 59.7245 173.704Z" fill="#B5BBC5"/>
<path d="M78.3393 173.704C76.1369 173.704 74.3541 175.484 74.3541 177.683C74.3541 179.882 76.1369 181.662 78.3393 181.662C80.5416 181.662 82.3244 179.882 82.3244 177.683C82.3244 175.484 80.5416 173.704 78.3393 173.704Z" fill="#B5BBC5"/>
<path d="M96.954 173.704C94.7517 173.704 92.9689 175.484 92.9689 177.683C92.9689 179.882 94.7517 181.662 96.954 181.662C99.1563 181.662 100.939 179.882 100.939 177.683C100.887 175.484 99.1039 173.704 96.954 173.704Z" fill="#B5BBC5"/>
<path d="M115.516 173.704C113.314 173.704 111.531 175.484 111.531 177.683C111.531 179.882 113.314 181.662 115.516 181.662C117.719 181.662 119.501 179.882 119.501 177.683C119.501 175.484 117.719 173.704 115.516 173.704Z" fill="#B5BBC5"/>
<path d="M134.131 173.704C131.929 173.704 130.146 175.484 130.146 177.683C130.146 179.882 131.929 181.662 134.131 181.662C136.333 181.662 138.116 179.882 138.116 177.683C138.064 175.484 136.333 173.704 134.131 173.704Z" fill="#B5BBC5"/>
<path d="M22.5474 193.546C20.3451 193.546 18.5623 195.325 18.5623 197.524C18.5623 199.723 20.3451 201.503 22.5474 201.503C24.7498 201.503 26.5326 199.723 26.5326 197.524C26.5326 195.273 24.7498 193.546 22.5474 193.546Z" fill="#B5BBC5"/>
<path d="M41.1622 193.546C38.9599 193.546 37.1771 195.325 37.1771 197.524C37.1771 199.723 38.9599 201.503 41.1622 201.503C43.3645 201.503 45.1473 199.723 45.1473 197.524C45.0949 195.273 43.3645 193.546 41.1622 193.546Z" fill="#B5BBC5"/>
<path d="M59.7245 193.546C57.5222 193.546 55.7394 195.325 55.7394 197.524C55.7394 199.723 57.5222 201.503 59.7245 201.503C61.9268 201.503 63.7096 199.723 63.7096 197.524C63.7096 195.273 61.9268 193.546 59.7245 193.546Z" fill="#B5BBC5"/>
<path d="M78.3393 193.546C76.1369 193.546 74.3541 195.325 74.3541 197.524C74.3541 199.723 76.1369 201.503 78.3393 201.503C80.5416 201.503 82.3244 199.723 82.3244 197.524C82.3244 195.273 80.5416 193.546 78.3393 193.546Z" fill="#B5BBC5"/>
<path d="M96.954 193.546C94.7517 193.546 92.9689 195.325 92.9689 197.524C92.9689 199.723 94.7517 201.503 96.954 201.503C99.1563 201.503 100.939 199.723 100.939 197.524C100.887 195.273 99.1039 193.546 96.954 193.546Z" fill="#B5BBC5"/>
<path d="M115.516 193.546C113.314 193.546 111.531 195.325 111.531 197.524C111.531 199.723 113.314 201.503 115.516 201.503C117.719 201.503 119.501 199.723 119.501 197.524C119.501 195.273 117.719 193.546 115.516 193.546Z" fill="#B5BBC5"/>
<path d="M134.131 193.546C131.929 193.546 130.146 195.325 130.146 197.524C130.146 199.723 131.929 201.503 134.131 201.503C136.333 201.503 138.116 199.723 138.116 197.524C138.064 195.273 136.333 193.546 134.131 193.546Z" fill="#B5BBC5"/>
<path d="M26.5326 217.313C26.5326 215.115 24.7497 213.335 22.5474 213.335C21.1841 213.335 20.0305 214.068 19.3488 215.115C20.7122 217.156 22.1279 219.093 23.5962 221.03C25.2741 220.559 26.5326 219.093 26.5326 217.313Z" fill="#B5BBC5"/>
<path d="M41.1622 213.335C38.9599 213.335 37.1771 215.115 37.1771 217.313C37.1771 219.512 38.9599 221.292 41.1622 221.292C43.3645 221.292 45.1473 219.512 45.1473 217.313C45.0949 215.115 43.3645 213.335 41.1622 213.335Z" fill="#B5BBC5"/>
<path d="M59.7245 213.335C57.5222 213.335 55.7394 215.115 55.7394 217.313C55.7394 219.512 57.5222 221.292 59.7245 221.292C61.9268 221.292 63.7096 219.512 63.7096 217.313C63.7096 215.115 61.9268 213.335 59.7245 213.335Z" fill="#B5BBC5"/>
<path d="M78.3393 213.335C76.1369 213.335 74.3541 215.115 74.3541 217.313C74.3541 219.512 76.1369 221.292 78.3393 221.292C80.5416 221.292 82.3244 219.512 82.3244 217.313C82.3244 215.115 80.5416 213.335 78.3393 213.335Z" fill="#B5BBC5"/>
<path d="M96.954 213.335C94.7517 213.335 92.9689 215.115 92.9689 217.313C92.9689 219.512 94.7517 221.292 96.954 221.292C99.1563 221.292 100.939 219.512 100.939 217.313C100.887 215.115 99.1039 213.335 96.954 213.335Z" fill="#B5BBC5"/>
<path d="M115.516 213.335C113.314 213.335 111.531 215.115 111.531 217.313C111.531 219.512 113.314 221.292 115.516 221.292C117.719 221.292 119.501 219.512 119.501 217.313C119.501 215.115 117.719 213.335 115.516 213.335Z" fill="#B5BBC5"/>
<path d="M134.131 213.335C131.929 213.335 130.146 215.115 130.146 217.313C130.146 219.512 131.929 221.292 134.131 221.292C136.333 221.292 138.116 219.512 138.116 217.313C138.064 215.115 136.333 213.335 134.131 213.335Z" fill="#B5BBC5"/>
<path d="M45.0949 237.102C45.0949 234.904 43.3121 233.124 41.1098 233.124C39.1172 233.124 37.5441 234.642 37.282 236.527C38.8026 238.045 40.3232 239.511 41.9487 240.872C43.7316 240.505 45.0949 238.987 45.0949 237.102Z" fill="#B5BBC5"/>
<path d="M59.7245 233.124C57.5222 233.124 55.7394 234.904 55.7394 237.102C55.7394 239.301 57.5222 241.081 59.7245 241.081C61.9268 241.081 63.7096 239.301 63.7096 237.102C63.7096 234.904 61.9268 233.124 59.7245 233.124Z" fill="#B5BBC5"/>
<path d="M78.3393 233.124C76.1369 233.124 74.3541 234.904 74.3541 237.102C74.3541 239.301 76.1369 241.081 78.3393 241.081C80.5416 241.081 82.3244 239.301 82.3244 237.102C82.3244 234.904 80.5416 233.124 78.3393 233.124Z" fill="#B5BBC5"/>
<path d="M96.954 233.124C94.7517 233.124 92.9689 234.904 92.9689 237.102C92.9689 239.301 94.7517 241.081 96.954 241.081C99.1563 241.081 100.939 239.301 100.939 237.102C100.887 234.904 99.1039 233.124 96.954 233.124Z" fill="#B5BBC5"/>
<path d="M115.516 233.124C113.314 233.124 111.531 234.904 111.531 237.102C111.531 239.301 113.314 241.081 115.516 241.081C117.719 241.081 119.501 239.301 119.501 237.102C119.501 234.904 117.719 233.124 115.516 233.124Z" fill="#B5BBC5"/>
<path d="M134.131 233.124C131.929 233.124 130.146 234.904 130.146 237.102C130.146 239.301 131.929 241.081 134.131 241.081C136.333 241.081 138.116 239.301 138.116 237.102C138.064 234.904 136.333 233.124 134.131 233.124Z" fill="#B5BBC5"/>
<path d="M59.7245 252.965C59.1477 252.965 58.5709 253.122 58.099 253.332C59.9343 254.536 61.7695 255.687 63.6572 256.787C63.6048 254.693 61.8744 252.965 59.7245 252.965Z" fill="#B5BBC5"/>
<path d="M78.3393 252.965C76.1369 252.965 74.3541 254.745 74.3541 256.944C74.3541 259.143 76.1369 260.923 78.3393 260.923C80.5416 260.923 82.3244 259.143 82.3244 256.944C82.3244 254.745 80.5416 252.965 78.3393 252.965Z" fill="#B5BBC5"/>
<path d="M96.954 252.965C94.7517 252.965 92.9689 254.745 92.9689 256.944C92.9689 259.143 94.7517 260.923 96.954 260.923C99.1563 260.923 100.939 259.143 100.939 256.944C100.887 254.745 99.1039 252.965 96.954 252.965Z" fill="#B5BBC5"/>
<path d="M115.516 252.965C113.314 252.965 111.531 254.745 111.531 256.944C111.531 259.143 113.314 260.923 115.516 260.923C117.719 260.923 119.501 259.143 119.501 256.944C119.501 254.745 117.719 252.965 115.516 252.965Z" fill="#B5BBC5"/>
<path d="M134.131 252.965C131.929 252.965 130.146 254.745 130.146 256.944C130.146 259.143 131.929 260.923 134.131 260.923C136.333 260.923 138.116 259.143 138.116 256.944C138.064 254.745 136.333 252.965 134.131 252.965Z" fill="#B5BBC5"/>
<path d="M115.516 272.754C114.258 272.754 113.157 273.382 112.423 274.325C114.625 274.691 116.88 274.953 119.134 275.215C118.61 273.801 117.194 272.754 115.516 272.754Z" fill="#B5BBC5"/>
<path d="M134.131 272.754C132.243 272.754 130.723 274.115 130.356 275.895C131.562 275.948 132.82 276 134.026 276C135.337 276 136.648 275.948 137.959 275.895C137.539 274.115 136.019 272.754 134.131 272.754Z" fill="#B5BBC5"/>
<path d="M152.484 153.915C150.281 153.915 148.499 155.695 148.499 157.894C148.499 160.093 150.281 161.873 152.484 161.873C154.686 161.873 156.469 160.093 156.469 157.894C156.469 155.695 154.686 153.915 152.484 153.915Z" fill="#B5BBC5"/>
<path d="M171.098 153.915C168.896 153.915 167.113 155.695 167.113 157.894C167.113 160.093 168.896 161.873 171.098 161.873C173.301 161.873 175.084 160.093 175.084 157.894C175.031 155.695 173.248 153.915 171.098 153.915Z" fill="#B5BBC5"/>
<path d="M189.661 153.915C187.458 153.915 185.676 155.695 185.676 157.894C185.676 160.093 187.458 161.873 189.661 161.873C191.863 161.873 193.646 160.093 193.646 157.894C193.646 155.695 191.863 153.915 189.661 153.915Z" fill="#B5BBC5"/>
<path d="M208.275 153.915C206.073 153.915 204.29 155.695 204.29 157.894C204.29 160.093 206.073 161.873 208.275 161.873C210.478 161.873 212.261 160.093 212.261 157.894C212.261 155.695 210.478 153.915 208.275 153.915Z" fill="#B5BBC5"/>
<path d="M226.89 153.915C224.688 153.915 222.905 155.695 222.905 157.894C222.905 160.093 224.688 161.873 226.89 161.873C229.093 161.873 230.875 160.093 230.875 157.894C230.823 155.695 229.04 153.915 226.89 153.915Z" fill="#B5BBC5"/>
<path d="M245.453 153.915C243.25 153.915 241.467 155.695 241.467 157.894C241.467 160.093 243.25 161.873 245.453 161.873C247.655 161.873 249.438 160.093 249.438 157.894C249.438 155.695 247.655 153.915 245.453 153.915Z" fill="#B5BBC5"/>
<path d="M264.067 153.915C261.865 153.915 260.082 155.695 260.082 157.894C260.082 160.093 261.865 161.873 264.067 161.873C266.27 161.873 268.052 160.093 268.052 157.894C268 155.695 266.27 153.915 264.067 153.915Z" fill="#B5BBC5"/>
<path d="M152.484 173.704C150.281 173.704 148.499 175.484 148.499 177.683C148.499 179.882 150.281 181.662 152.484 181.662C154.686 181.662 156.469 179.882 156.469 177.683C156.469 175.484 154.686 173.704 152.484 173.704Z" fill="#B5BBC5"/>
<path d="M171.098 173.704C168.896 173.704 167.113 175.484 167.113 177.683C167.113 179.882 168.896 181.662 171.098 181.662C173.301 181.662 175.084 179.882 175.084 177.683C175.031 175.484 173.248 173.704 171.098 173.704Z" fill="#B5BBC5"/>
<path d="M189.661 173.704C187.458 173.704 185.676 175.484 185.676 177.683C185.676 179.882 187.458 181.662 189.661 181.662C191.863 181.662 193.646 179.882 193.646 177.683C193.646 175.484 191.863 173.704 189.661 173.704Z" fill="#B5BBC5"/>
<path d="M208.275 173.704C206.073 173.704 204.29 175.484 204.29 177.683C204.29 179.882 206.073 181.662 208.275 181.662C210.478 181.662 212.261 179.882 212.261 177.683C212.261 175.484 210.478 173.704 208.275 173.704Z" fill="#B5BBC5"/>
<path d="M226.89 173.704C224.688 173.704 222.905 175.484 222.905 177.683C222.905 179.882 224.688 181.662 226.89 181.662C229.093 181.662 230.875 179.882 230.875 177.683C230.823 175.484 229.04 173.704 226.89 173.704Z" fill="#B5BBC5"/>
<path d="M245.453 173.704C243.25 173.704 241.467 175.484 241.467 177.683C241.467 179.882 243.25 181.662 245.453 181.662C247.655 181.662 249.438 179.882 249.438 177.683C249.438 175.484 247.655 173.704 245.453 173.704Z" fill="#B5BBC5"/>
<path d="M264.067 173.704C261.865 173.704 260.082 175.484 260.082 177.683C260.082 179.882 261.865 181.662 264.067 181.662C264.487 181.662 264.854 181.557 265.221 181.452C265.903 179.41 266.532 177.369 267.109 175.275C266.374 174.332 265.326 173.704 264.067 173.704Z" fill="#B5BBC5"/>
<path d="M152.484 193.546C150.281 193.546 148.499 195.325 148.499 197.524C148.499 199.723 150.281 201.503 152.484 201.503C154.686 201.503 156.469 199.723 156.469 197.524C156.469 195.273 154.686 193.546 152.484 193.546Z" fill="#B5BBC5"/>
<path d="M171.098 193.546C168.896 193.546 167.113 195.325 167.113 197.524C167.113 199.723 168.896 201.503 171.098 201.503C173.301 201.503 175.084 199.723 175.084 197.524C175.031 195.273 173.248 193.546 171.098 193.546Z" fill="#B5BBC5"/>
<path d="M189.661 193.546C187.458 193.546 185.676 195.325 185.676 197.524C185.676 199.723 187.458 201.503 189.661 201.503C191.863 201.503 193.646 199.723 193.646 197.524C193.646 195.273 191.863 193.546 189.661 193.546Z" fill="#B5BBC5"/>
<path d="M208.275 193.546C206.073 193.546 204.29 195.325 204.29 197.524C204.29 199.723 206.073 201.503 208.275 201.503C210.478 201.503 212.261 199.723 212.261 197.524C212.261 195.273 210.478 193.546 208.275 193.546Z" fill="#B5BBC5"/>
<path d="M226.89 193.546C224.688 193.546 222.905 195.325 222.905 197.524C222.905 199.723 224.688 201.503 226.89 201.503C229.093 201.503 230.875 199.723 230.875 197.524C230.823 195.273 229.04 193.546 226.89 193.546Z" fill="#B5BBC5"/>
<path d="M245.453 193.546C243.25 193.546 241.467 195.325 241.467 197.524C241.467 199.723 243.25 201.503 245.453 201.503C247.655 201.503 249.438 199.723 249.438 197.524C249.438 195.273 247.655 193.546 245.453 193.546Z" fill="#B5BBC5"/>
<path d="M152.484 213.335C150.281 213.335 148.499 215.115 148.499 217.313C148.499 219.512 150.281 221.292 152.484 221.292C154.686 221.292 156.469 219.512 156.469 217.313C156.469 215.115 154.686 213.335 152.484 213.335Z" fill="#B5BBC5"/>
<path d="M171.098 213.335C168.896 213.335 167.113 215.115 167.113 217.313C167.113 219.512 168.896 221.292 171.098 221.292C173.301 221.292 175.084 219.512 175.084 217.313C175.031 215.115 173.248 213.335 171.098 213.335Z" fill="#B5BBC5"/>
<path d="M189.661 213.335C187.458 213.335 185.676 215.115 185.676 217.313C185.676 219.512 187.458 221.292 189.661 221.292C191.863 221.292 193.646 219.512 193.646 217.313C193.646 215.115 191.863 213.335 189.661 213.335Z" fill="#B5BBC5"/>
<path d="M208.275 213.335C206.073 213.335 204.29 215.115 204.29 217.313C204.29 219.512 206.073 221.292 208.275 221.292C210.478 221.292 212.261 219.512 212.261 217.313C212.261 215.115 210.478 213.335 208.275 213.335Z" fill="#B5BBC5"/>
<path d="M226.89 213.335C224.688 213.335 222.905 215.115 222.905 217.313C222.905 219.512 224.688 221.292 226.89 221.292C229.093 221.292 230.875 219.512 230.875 217.313C230.823 215.115 229.04 213.335 226.89 213.335Z" fill="#B5BBC5"/>
<path d="M245.453 213.335C243.25 213.335 241.467 215.115 241.467 217.313C241.467 219.146 242.726 220.612 244.404 221.03C245.872 219.093 247.288 217.104 248.651 215.115C247.969 214.068 246.816 213.335 245.453 213.335Z" fill="#B5BBC5"/>
<path d="M152.484 233.124C150.281 233.124 148.499 234.904 148.499 237.102C148.499 239.301 150.281 241.081 152.484 241.081C154.686 241.081 156.469 239.301 156.469 237.102C156.469 234.904 154.686 233.124 152.484 233.124Z" fill="#B5BBC5"/>
<path d="M171.098 233.124C168.896 233.124 167.113 234.904 167.113 237.102C167.113 239.301 168.896 241.081 171.098 241.081C173.301 241.081 175.084 239.301 175.084 237.102C175.031 234.904 173.248 233.124 171.098 233.124Z" fill="#B5BBC5"/>
<path d="M189.661 233.124C187.458 233.124 185.676 234.904 185.676 237.102C185.676 239.301 187.458 241.081 189.661 241.081C191.863 241.081 193.646 239.301 193.646 237.102C193.646 234.904 191.863 233.124 189.661 233.124Z" fill="#B5BBC5"/>
<path d="M208.275 233.124C206.073 233.124 204.29 234.904 204.29 237.102C204.29 239.301 206.073 241.081 208.275 241.081C210.478 241.081 212.261 239.301 212.261 237.102C212.261 234.904 210.478 233.124 208.275 233.124Z" fill="#B5BBC5"/>
<path d="M226.89 233.124C224.688 233.124 222.905 234.904 222.905 237.102C222.905 238.987 224.268 240.505 226.104 240.924C227.677 239.511 229.197 238.097 230.718 236.579C230.456 234.642 228.883 233.124 226.89 233.124Z" fill="#B5BBC5"/>
<path d="M152.484 252.965C150.281 252.965 148.499 254.745 148.499 256.944C148.499 259.143 150.281 260.923 152.484 260.923C154.686 260.923 156.469 259.143 156.469 256.944C156.469 254.745 154.686 252.965 152.484 252.965Z" fill="#B5BBC5"/>
<path d="M171.098 252.965C168.896 252.965 167.113 254.745 167.113 256.944C167.113 259.143 168.896 260.923 171.098 260.923C173.301 260.923 175.084 259.143 175.084 256.944C175.031 254.745 173.248 252.965 171.098 252.965Z" fill="#B5BBC5"/>
<path d="M189.661 252.965C187.458 252.965 185.676 254.745 185.676 256.944C185.676 259.143 187.458 260.923 189.661 260.923C191.863 260.923 193.646 259.143 193.646 256.944C193.646 254.745 191.863 252.965 189.661 252.965Z" fill="#B5BBC5"/>
<path d="M204.343 256.787C206.23 255.687 208.066 254.536 209.901 253.332C209.377 253.122 208.852 252.965 208.275 252.965C206.126 252.965 204.395 254.693 204.343 256.787Z" fill="#B5BBC5"/>
<path d="M152.484 272.754C150.858 272.754 149.442 273.749 148.813 275.215C151.068 274.953 153.323 274.691 155.525 274.325C154.843 273.382 153.742 272.754 152.484 272.754Z" fill="#B5BBC5"/>
<path d="M255 140C255 206.826 200.826 261 134 261C67.1735 261 13 206.826 13 140C13 73.1735 67.1735 19 134 19C200.826 19 255 73.1735 255 140Z" fill="#87CEEB"/>
<path d="M80.9597 181.775L81.4597 177.275H81.7597C82.2097 179 83.0097 179.725 83.9097 179.725C85.2097 179.725 86.7097 178.2 87.6847 176L81.4347 164.5C80.9847 163.7 80.7347 163.375 79.1097 162.975V162.7H87.0597V162.975C85.8097 163.275 85.2597 163.575 85.2597 164.025C85.2597 164.175 85.3097 164.325 85.4097 164.5L89.4097 171.95H89.5347L92.9347 164.45C93.0097 164.3 93.0347 164.175 93.0347 164.05C93.0347 163.55 92.3847 163.3 90.8347 162.975V162.7H95.7847V162.975C94.2097 163.375 93.7347 163.7 93.3847 164.5L88.1597 176C86.5847 179.6 84.2597 181.775 80.9597 181.775ZM103.204 176.225C99.6288 176.225 95.8038 174.05 95.8038 169.325C95.8038 165.325 98.5788 162.475 102.829 162.475C106.429 162.475 108.854 164.65 108.854 166.875C108.854 168.625 107.304 169.375 99.8538 170.625C100.254 174.175 102.354 175.375 104.429 175.375C105.704 175.375 106.954 174.925 107.804 174.3V174.65C106.679 175.675 104.979 176.225 103.204 176.225ZM99.8038 170.225C104.429 169.2 105.279 168.625 105.279 166.85C105.279 165.05 104.554 162.9 102.754 162.9C100.679 162.9 99.7788 165.875 99.7788 169.325C99.7788 169.625 99.7788 169.925 99.8038 170.225ZM116.967 176.225C113.767 176.225 111.042 173.575 111.042 169.325C111.042 165.1 113.767 162.475 116.967 162.475C118.192 162.475 119.567 162.9 120.792 163.875V162.925C122.117 162.925 123.442 162.775 124.667 162.35V174C124.667 175 125.092 175.475 126.192 175.475C126.392 175.475 126.567 175.475 126.817 175.45V175.75C125.517 176.025 124.492 176.15 123.642 176.15C122.092 176.15 121.267 175.675 120.942 174.675C119.667 175.75 118.242 176.225 116.967 176.225ZM118.417 175.1C119.167 175.1 120.017 174.8 120.842 174.225C120.817 174.025 120.792 173.775 120.792 173.525V164.425C119.967 163.875 119.142 163.575 118.417 163.575C116.492 163.575 115.017 165.5 115.017 169.325C115.017 173.175 116.492 175.1 118.417 175.1ZM127.482 176V175.725C129.057 175.425 129.332 175.2 129.332 174.475V164.45C129.332 163.725 129.057 163.5 127.482 163.2V162.925C129.807 162.925 131.507 162.775 133.207 162.35V165.5H133.307C134.307 163.575 136.307 162.75 139.457 162.475L138.607 168.075H138.307C137.882 165.225 136.857 164.175 135.832 164.175C134.757 164.175 133.632 165.325 133.207 166.65V174.475C133.207 175.2 133.482 175.425 135.057 175.725V176H127.482ZM147.47 176.225C145.695 176.225 143.695 175.85 141.67 175.075V171.25H141.945C142.645 175.15 145.67 175.775 147.445 175.775C149.32 175.775 150.295 175.025 150.295 173.85C150.295 172.8 149.445 172.05 147.62 171.425C145.42 170.65 141.295 169.8 141.295 166.25C141.295 163.625 143.745 162.475 146.67 162.475C148.395 162.475 150.32 162.875 151.97 163.65V166.7H151.695C151.145 163.725 148.72 162.9 146.77 162.9C144.895 162.9 143.97 163.675 143.97 164.625C143.97 165.475 144.67 166.1 145.945 166.55C148.395 167.4 153.145 168.2 153.145 172.1C153.145 174.9 150.72 176.225 147.47 176.225ZM170.24 176.225C165.99 176.225 163.065 173.375 163.065 169.325C163.065 165.275 165.99 162.475 170.24 162.475C174.49 162.475 177.39 165.275 177.39 169.325C177.39 173.375 174.49 176.225 170.24 176.225ZM170.24 175.8C172.19 175.8 173.415 173.875 173.415 169.325C173.415 164.8 172.19 162.9 170.24 162.9C168.29 162.9 167.04 164.8 167.04 169.325C167.04 173.875 168.29 175.8 170.24 175.8ZM179.546 176V175.725C181.121 175.425 181.421 175.2 181.421 174.475V163.125H179.421V162.7H181.421V160.7C181.421 157.6 183.521 156.325 185.771 156.325C187.396 156.325 189.096 156.975 190.171 158.1V160.7H189.871C189.196 158.05 188.071 156.925 187.121 156.925C186.121 156.925 185.296 158.1 185.296 160.025V162.7H188.471V163.125H185.296V174.475C185.296 175.2 185.571 175.425 187.596 175.725V176H179.546ZM68.78 205.225C65.205 205.225 61.38 203.05 61.38 198.325C61.38 194.325 64.155 191.475 68.405 191.475C72.005 191.475 74.43 193.65 74.43 195.875C74.43 197.625 72.88 198.375 65.43 199.625C65.83 203.175 67.93 204.375 70.005 204.375C71.28 204.375 72.53 203.925 73.38 203.3V203.65C72.255 204.675 70.555 205.225 68.78 205.225ZM65.38 199.225C70.005 198.2 70.855 197.625 70.855 195.85C70.855 194.05 70.13 191.9 68.33 191.9C66.255 191.9 65.355 194.875 65.355 198.325C65.355 198.625 65.355 198.925 65.38 199.225ZM75.2546 205V204.725C76.7046 204.3 77.3296 203.85 77.9796 203.2L81.7296 199.475L77.6296 193.5C77.1046 192.7 76.7546 192.375 75.2546 191.975V191.7H83.2046V191.975C82.1296 192.25 81.6546 192.5 81.6546 192.9C81.6546 193.075 81.7296 193.275 81.9046 193.5L84.2796 196.95H84.3296L87.7046 193.5C87.8796 193.3 87.9546 193.1 87.9546 192.925C87.9546 192.525 87.3296 192.2 86.1796 191.975V191.7H90.9296V191.975C89.5546 192.4 88.8546 192.9 88.2046 193.55L84.5296 197.35L88.5546 203.2C89.0796 203.975 89.4296 204.325 90.9546 204.725V205H82.9546V204.725C84.0296 204.45 84.5046 204.175 84.5046 203.775C84.5046 203.625 84.4296 203.425 84.2796 203.2L81.9546 199.825H81.9046L78.5046 203.2C78.3046 203.4 78.2296 203.575 78.2296 203.725C78.2296 204.2 78.9796 204.5 80.0046 204.725V205H75.2546ZM91.7132 210.55V210.275C93.2882 209.975 93.5882 209.75 93.5882 209.025V193.45C93.5882 192.725 93.2882 192.5 91.7132 192.2V191.925C94.0632 191.925 95.7382 191.775 97.4632 191.35V192.875C98.6882 191.9 100.038 191.475 101.288 191.475C104.488 191.475 107.213 194.1 107.213 198.325C107.213 202.575 104.488 205.225 101.288 205.225C100.038 205.225 98.6882 204.8 97.4632 203.8V209.025C97.4632 209.75 97.7382 209.975 99.4882 210.275V210.55H91.7132ZM99.8382 204.1C101.763 204.1 103.238 202.175 103.238 198.325C103.238 194.5 101.763 192.575 99.8382 192.575C99.0882 192.575 98.2632 192.875 97.4632 193.425V203.275C98.2632 203.825 99.0882 204.1 99.8382 204.1ZM116.802 205.225C113.227 205.225 109.402 203.05 109.402 198.325C109.402 194.325 112.177 191.475 116.427 191.475C120.027 191.475 122.452 193.65 122.452 195.875C122.452 197.625 120.902 198.375 113.452 199.625C113.852 203.175 115.952 204.375 118.027 204.375C119.302 204.375 120.552 203.925 121.402 203.3V203.65C120.277 204.675 118.577 205.225 116.802 205.225ZM113.402 199.225C118.027 198.2 118.877 197.625 118.877 195.85C118.877 194.05 118.152 191.9 116.352 191.9C114.277 191.9 113.377 194.875 113.377 198.325C113.377 198.625 113.377 198.925 113.402 199.225ZM123.99 205V204.725C125.565 204.425 125.84 204.2 125.84 203.475V193.45C125.84 192.725 125.565 192.5 123.99 192.2V191.925C126.315 191.925 128.015 191.775 129.715 191.35V194.5H129.815C130.815 192.575 132.815 191.75 135.965 191.475L135.115 197.075H134.815C134.39 194.225 133.365 193.175 132.34 193.175C131.265 193.175 130.14 194.325 129.715 195.65V203.475C129.715 204.2 129.99 204.425 131.565 204.725V205H123.99ZM140.829 189.15C139.654 189.15 138.704 188.125 138.704 186.95C138.704 185.775 139.654 184.825 140.829 184.825C142.029 184.825 142.979 185.775 142.979 186.95C142.979 188.125 142.029 189.15 140.829 189.15ZM141.729 205.15C139.679 205.15 138.904 204.325 138.904 202.525V193.45C138.904 192.725 138.629 192.5 137.054 192.2V191.925C139.404 191.925 141.079 191.775 142.779 191.35V203C142.779 204 143.179 204.475 144.304 204.475C144.504 204.475 144.704 204.475 144.954 204.45V204.75C143.629 205.025 142.579 205.15 141.729 205.15ZM153.643 205.225C150.068 205.225 146.243 203.05 146.243 198.325C146.243 194.325 149.018 191.475 153.268 191.475C156.868 191.475 159.293 193.65 159.293 195.875C159.293 197.625 157.743 198.375 150.293 199.625C150.693 203.175 152.793 204.375 154.868 204.375C156.143 204.375 157.393 203.925 158.243 203.3V203.65C157.118 204.675 155.418 205.225 153.643 205.225ZM150.243 199.225C154.868 198.2 155.718 197.625 155.718 195.85C155.718 194.05 154.993 191.9 153.193 191.9C151.118 191.9 150.218 194.875 150.218 198.325C150.218 198.625 150.218 198.925 150.243 199.225ZM174.756 205.15C172.706 205.15 171.931 204.325 171.931 202.525V195.325C171.931 193.7 171.431 192.675 169.706 192.675C168.906 192.675 167.856 192.9 166.506 193.375V203.475C166.506 204.2 166.781 204.425 168.356 204.725V205H160.756V204.725C162.331 204.425 162.631 204.2 162.631 203.475V193.45C162.631 192.725 162.331 192.5 160.756 192.2V191.925C163.106 191.925 164.781 191.775 166.506 191.35V192.925C168.706 191.95 170.531 191.475 171.956 191.475C174.556 191.475 175.806 193.075 175.806 196.05V203C175.806 204 176.206 204.475 177.306 204.475C177.481 204.475 177.681 204.475 177.931 204.45V204.75C176.631 205.025 175.581 205.15 174.756 205.15ZM186.429 205.225C182.879 205.225 179.129 203.05 179.129 198.325C179.129 193.375 183.329 191.475 187.029 191.475C188.604 191.475 190.079 191.825 191.104 192.425V197.45H190.804C190.179 193.6 188.504 191.9 186.904 191.9C185.029 191.9 183.204 194.25 183.204 198.325C183.204 202.825 185.554 204.325 187.829 204.325C189.004 204.325 190.204 203.9 190.979 203.3V203.65C189.854 204.675 188.179 205.225 186.429 205.225ZM200.982 205.225C197.407 205.225 193.582 203.05 193.582 198.325C193.582 194.325 196.357 191.475 200.607 191.475C204.207 191.475 206.632 193.65 206.632 195.875C206.632 197.625 205.082 198.375 197.632 199.625C198.032 203.175 200.132 204.375 202.207 204.375C203.482 204.375 204.732 203.925 205.582 203.3V203.65C204.457 204.675 202.757 205.225 200.982 205.225ZM197.582 199.225C202.207 198.2 203.057 197.625 203.057 195.85C203.057 194.05 202.332 191.9 200.532 191.9C198.457 191.9 197.557 194.875 197.557 198.325C197.557 198.625 197.557 198.925 197.582 199.225Z" fill="#707070"/>
<path d="M76.5214 140V137.756L93.6814 115.91C97.1134 111.488 98.4994 107.264 98.4994 103.634C98.4994 96.836 93.7474 92.15 88.5994 92.15C83.7154 92.15 78.8974 96.374 77.4454 107.132H76.6534V92.942C81.0754 91.556 88.3354 90.896 92.2294 90.896C103.185 90.896 108.861 96.572 108.861 103.634C108.861 108.848 105.693 114.854 99.1594 119.804L81.2734 133.466V133.73H98.3674C105.429 133.73 107.079 132.41 108.531 126.404H109.323V140H76.5214ZM132.124 140.594C128.032 140.594 123.676 139.868 119.452 138.548V127.46H120.244C122.488 136.04 126.448 139.406 130.21 139.406C135.556 139.406 140.572 132.872 140.572 125.546C140.572 117.956 135.292 114.458 128.626 114.458C125.92 114.458 123.016 115.052 120.178 116.174L123.346 91.49H137.866C144.268 91.49 147.04 91.292 148.624 89.048H149.35L148.624 91.688C147.238 97.1 143.806 98.618 137.404 98.618H123.544L121.696 113.27C125.392 111.554 129.484 110.696 133.51 110.696C142.948 110.696 151.528 115.58 151.528 125.546C151.528 135.776 142.816 140.594 132.124 140.594ZM194.698 120.53H182.224V133.334H173.512V120.53H161.038V112.478H173.512V99.674H182.224V112.478H194.698V120.53Z" fill="#707070"/>
</g>
<defs>
<clipPath id="clip0_33_489">
<rect width="268" height="276" fill="white"/>
</clipPath>
</defs>
</svg>
