<svg width="180" height="48" viewBox="0 0 180 48" fill="none" xmlns="http://www.w3.org/2000/svg">
<path d="M11.378 38.288H26.162V47H0.0920002V0.667999H11.378V38.288ZM53.4571 47.462C49.1011 47.462 45.0971 46.45 41.4451 44.426C37.8371 42.402 34.9551 39.586 32.7991 35.978C30.6871 32.326 29.6311 28.234 29.6311 23.702C29.6311 19.17 30.6871 15.1 32.7991 11.492C34.9551 7.884 37.8371 5.068 41.4451 3.044C45.0971 1.02 49.1011 0.00799918 53.4571 0.00799918C57.8131 0.00799918 61.7951 1.02 65.4031 3.044C69.0551 5.068 71.9151 7.884 73.9831 11.492C76.0951 15.1 77.1511 19.17 77.1511 23.702C77.1511 28.234 76.0951 32.326 73.9831 35.978C71.8711 39.586 69.0111 42.402 65.4031 44.426C61.7951 46.45 57.8131 47.462 53.4571 47.462ZM53.4571 37.166C57.1531 37.166 60.1011 35.934 62.3011 33.47C64.5451 31.006 65.6671 27.75 65.6671 23.702C65.6671 19.61 64.5451 16.354 62.3011 13.934C60.1011 11.47 57.1531 10.238 53.4571 10.238C49.7171 10.238 46.7251 11.448 44.4811 13.868C42.2811 16.288 41.1811 19.566 41.1811 23.702C41.1811 27.794 42.2811 31.072 44.4811 33.536C46.7251 35.956 49.7171 37.166 53.4571 37.166ZM114.186 15.32C113.35 13.78 112.14 12.614 110.556 11.822C109.016 10.986 107.19 10.568 105.078 10.568C101.426 10.568 98.4999 11.778 96.2999 14.198C94.0999 16.574 92.9999 19.764 92.9999 23.768C92.9999 28.036 94.1439 31.38 96.4319 33.8C98.7639 36.176 101.954 37.364 106.002 37.364C108.774 37.364 111.106 36.66 112.998 35.252C114.934 33.844 116.342 31.82 117.222 29.18H102.9V20.864H127.452V31.358C126.616 34.174 125.186 36.792 123.162 39.212C121.182 41.632 118.652 43.59 115.572 45.086C112.492 46.582 109.016 47.33 105.144 47.33C100.568 47.33 96.4759 46.34 92.8679 44.36C89.3039 42.336 86.5099 39.542 84.4859 35.978C82.5059 32.414 81.5159 28.344 81.5159 23.768C81.5159 19.192 82.5059 15.122 84.4859 11.558C86.5099 7.95 89.3039 5.156 92.8679 3.176C96.4319 1.152 100.502 0.139997 105.078 0.139997C110.622 0.139997 115.286 1.482 119.07 4.166C122.898 6.85 125.428 10.568 126.66 15.32H114.186ZM155.615 47.462C151.259 47.462 147.255 46.45 143.603 44.426C139.995 42.402 137.113 39.586 134.957 35.978C132.845 32.326 131.789 28.234 131.789 23.702C131.789 19.17 132.845 15.1 134.957 11.492C137.113 7.884 139.995 5.068 143.603 3.044C147.255 1.02 151.259 0.00799918 155.615 0.00799918C159.971 0.00799918 163.953 1.02 167.561 3.044C171.213 5.068 174.073 7.884 176.141 11.492C178.253 15.1 179.309 19.17 179.309 23.702C179.309 28.234 178.253 32.326 176.141 35.978C174.029 39.586 171.169 42.402 167.561 44.426C163.953 46.45 159.971 47.462 155.615 47.462ZM155.615 37.166C159.311 37.166 162.259 35.934 164.459 33.47C166.703 31.006 167.825 27.75 167.825 23.702C167.825 19.61 166.703 16.354 164.459 13.934C162.259 11.47 159.311 10.238 155.615 10.238C151.875 10.238 148.883 11.448 146.639 13.868C144.439 16.288 143.339 19.566 143.339 23.702C143.339 27.794 144.439 31.072 146.639 33.536C148.883 35.956 151.875 37.166 155.615 37.166Z" fill="black"/>
</svg>
