<svg width="372" height="689" viewBox="0 0 372 689" fill="none" xmlns="http://www.w3.org/2000/svg">
<path d="M320.138 689H51.8398C23.2105 689 0 667.836 0 641.711V47.2688C0 21.1639 23.2105 0 51.8398 0H320.138C348.767 0 371.977 21.1639 371.977 47.2688V641.711C372 667.836 348.767 689 320.138 689Z" fill="#2A2A2A"/>
<path d="M51.8398 680.765C28.2455 680.765 9.03137 663.245 9.03137 641.711V47.2687C9.03137 25.7548 28.2455 8.23486 51.8398 8.23486H320.138C343.755 8.23486 362.946 25.7548 362.946 47.2687V641.711C362.946 663.245 343.732 680.744 320.138 680.744H51.8398V680.765Z" fill="url(#paint0_linear_384_46)"/>
<path d="M345.741 63.1416H26.2585V629.296H345.741V63.1416Z" fill="white"/>
<path d="M122.194 31.7458C122.194 29.0282 124.61 26.8459 127.567 26.8459C130.548 26.8459 132.941 29.0488 132.941 31.7458C132.941 34.4633 130.525 36.6456 127.567 36.6456C124.61 36.6456 122.194 34.4427 122.194 31.7458Z" fill="#2A2A2A"/>
<path d="M212.439 35.122H159.561C157.98 35.122 156.693 33.9485 156.693 32.5074C156.693 31.0663 157.98 29.8928 159.561 29.8928H212.439C214.02 29.8928 215.307 31.0663 215.307 32.5074C215.307 33.9485 214.02 35.122 212.439 35.122Z" fill="#2A2A2A"/>
<rect x="95" y="497" width="185" height="37" rx="18.5" fill="#87CEEB"/>
<path d="M132.387 517.143C132.678 519.486 133.844 520.658 135.883 520.658C136.516 520.658 137.017 520.449 137.384 520.031C137.764 519.613 137.96 519.062 137.973 518.378C137.973 517.884 137.802 517.453 137.46 517.086C137.131 516.706 136.675 516.402 136.092 516.174L134.154 515.395C133.47 515.116 132.951 514.743 132.596 514.274C132.241 513.805 132.064 513.254 132.064 512.621C132.064 512.051 132.197 511.525 132.463 511.044C132.729 510.563 133.128 510.183 133.66 509.904C134.192 509.613 134.832 509.467 135.579 509.467C135.984 509.467 136.326 509.505 136.605 509.581C136.896 509.644 137.181 509.727 137.46 509.828C137.739 509.917 137.929 509.98 138.03 510.018C138.233 510.094 138.404 510.132 138.543 510.132C138.771 510.132 138.955 510.107 139.094 510.056C139.056 510.36 139.037 510.835 139.037 511.481C139.037 511.861 139.043 512.133 139.056 512.298C139.069 512.463 139.1 512.615 139.151 512.754H138.657C138.657 511.931 138.385 511.266 137.84 510.759C137.308 510.24 136.637 509.98 135.826 509.98C135.167 509.98 134.635 510.164 134.23 510.531C133.825 510.886 133.622 511.386 133.622 512.032C133.622 512.45 133.768 512.83 134.059 513.172C134.35 513.501 134.749 513.767 135.256 513.97L137.004 514.673C137.967 515.066 138.651 515.503 139.056 515.984C139.474 516.453 139.683 517.061 139.683 517.808C139.683 518.467 139.518 519.056 139.189 519.575C138.872 520.082 138.435 520.481 137.878 520.772C137.333 521.051 136.738 521.19 136.092 521.19C135.699 521.19 135.357 521.171 135.066 521.133C134.775 521.108 134.464 521.044 134.135 520.943C133.464 520.753 132.963 520.658 132.634 520.658C132.52 520.658 132.4 520.671 132.273 520.696C132.146 520.721 132.051 520.74 131.988 520.753C132.039 520.487 132.064 519.961 132.064 519.176C132.064 518.15 132.013 517.472 131.912 517.143H132.387ZM148.559 520.506V521H145.861C145.873 520.911 145.886 520.797 145.899 520.658C145.924 520.506 145.937 520.386 145.937 520.297L145.975 519.556C145.696 520.101 145.335 520.493 144.892 520.734C144.461 520.975 143.942 521.095 143.334 521.095C142.536 521.095 141.928 520.918 141.51 520.563C141.104 520.196 140.902 519.657 140.902 518.948C140.902 517.973 141.307 517.257 142.118 516.801C142.941 516.332 144.227 516.098 145.975 516.098V514.996C145.975 514.401 145.835 513.976 145.557 513.723C145.278 513.47 144.828 513.343 144.208 513.343C143.245 513.343 142.764 513.609 142.764 514.141C142.764 514.242 142.789 514.363 142.84 514.502C142.903 514.629 142.935 514.749 142.935 514.863C142.935 515.078 142.865 515.243 142.726 515.357C142.586 515.458 142.409 515.509 142.194 515.509C141.928 515.509 141.719 515.427 141.567 515.262C141.427 515.097 141.358 514.882 141.358 514.616C141.358 514.084 141.636 513.653 142.194 513.324C142.751 512.995 143.498 512.83 144.436 512.83C146.551 512.83 147.609 513.723 147.609 515.509V520.183C147.609 520.424 147.691 520.544 147.856 520.544L148.559 520.506ZM143.904 520.411C144.461 520.411 144.936 520.183 145.329 519.727C145.721 519.258 145.937 518.657 145.975 517.922V516.611C144.784 516.611 143.929 516.788 143.41 517.143C142.89 517.485 142.631 518.036 142.631 518.796C142.631 519.328 142.738 519.733 142.954 520.012C143.182 520.278 143.498 520.411 143.904 520.411ZM156.985 513.02V513.514L156.358 513.476C156.13 513.476 155.984 513.571 155.921 513.761L152.919 521.095H152.406L149.48 513.723C149.454 513.66 149.404 513.603 149.328 513.552C149.264 513.501 149.188 513.476 149.1 513.476L148.473 513.514V513.02H152.33V513.514L151.494 513.476C151.405 513.476 151.323 513.514 151.247 513.59C151.183 513.666 151.171 513.755 151.209 513.856L153.28 518.872L155.294 513.78C155.319 513.729 155.332 513.679 155.332 513.628C155.332 513.514 155.268 513.463 155.142 513.476L154.306 513.514V513.02H156.985ZM161.108 512.83C162.109 512.83 162.913 513.153 163.521 513.799C164.142 514.432 164.465 515.306 164.49 516.421V516.972H159.018C159.018 518.125 159.214 519.011 159.607 519.632C160.012 520.24 160.614 520.55 161.412 520.563C162.045 520.563 162.577 520.405 163.008 520.088C163.451 519.771 163.774 519.379 163.977 518.91L164.414 519.233C164.161 519.841 163.73 520.322 163.122 520.677C162.527 521.019 161.868 521.19 161.146 521.19C158.575 521.19 157.289 519.803 157.289 517.029C157.289 515.648 157.612 514.603 158.258 513.894C158.904 513.185 159.854 512.83 161.108 512.83ZM161.108 513.343C160.399 513.343 159.873 513.634 159.531 514.217C159.202 514.8 159.037 515.56 159.037 516.497H162.495C162.622 516.497 162.717 516.453 162.78 516.364C162.843 516.275 162.875 516.111 162.875 515.87C162.875 515.009 162.736 514.375 162.457 513.97C162.191 513.552 161.741 513.343 161.108 513.343ZM181.209 520.468V521H178.036L176.953 519.537C176.066 520.639 174.895 521.19 173.438 521.19C172.387 521.19 171.506 520.924 170.797 520.392C170.1 519.847 169.752 519.056 169.752 518.017C169.752 517.244 169.993 516.579 170.474 516.022C170.955 515.465 171.791 514.844 172.982 514.16L172.849 513.989C172.178 513.09 171.842 512.311 171.842 511.652C171.842 511.019 172.095 510.499 172.602 510.094C173.109 509.689 173.736 509.486 174.483 509.486C175.18 509.486 175.718 509.663 176.098 510.018C176.478 510.36 176.668 510.784 176.668 511.291C176.668 512.216 176.041 513.026 174.787 513.723L177.504 517.447C177.897 516.459 178.093 515.49 178.093 514.54C178.093 514.299 178.074 514.141 178.036 514.065C177.998 513.976 177.928 513.932 177.827 513.932L176.953 513.97V513.419H179.822V513.97L178.948 513.932C178.859 513.932 178.796 513.964 178.758 514.027C178.733 514.09 178.714 514.198 178.701 514.35C178.574 515.731 178.302 516.934 177.884 517.96L179.575 520.259C179.702 520.424 179.892 520.506 180.145 520.506L181.209 520.468ZM174.692 510.075C174.287 510.075 173.951 510.17 173.685 510.36C173.432 510.55 173.305 510.803 173.305 511.12C173.305 511.386 173.394 511.677 173.571 511.994C173.761 512.311 174.027 512.703 174.369 513.172L174.483 513.324C175.56 512.716 176.098 512.045 176.098 511.31C176.098 510.93 175.965 510.632 175.699 510.417C175.446 510.189 175.11 510.075 174.692 510.075ZM173.875 520.601C174.394 520.601 174.882 520.468 175.338 520.202C175.807 519.923 176.225 519.543 176.592 519.062L173.305 514.597C172.064 515.471 171.443 516.554 171.443 517.846C171.443 518.669 171.665 519.334 172.108 519.841C172.564 520.348 173.153 520.601 173.875 520.601ZM185.96 515.395C185.96 513.533 186.461 512.083 187.461 511.044C188.475 509.993 189.874 509.467 191.66 509.467C192.129 509.467 192.515 509.505 192.819 509.581C193.136 509.657 193.522 509.771 193.978 509.923C194.295 510.037 194.567 510.126 194.795 510.189C195.036 510.252 195.308 510.284 195.612 510.284C195.562 510.677 195.536 511.152 195.536 511.709C195.536 511.975 195.543 512.216 195.555 512.431C195.568 512.634 195.587 512.748 195.612 512.773H195.156C195.042 512.254 194.808 511.779 194.453 511.348C194.099 510.917 193.668 510.575 193.161 510.322C192.655 510.069 192.123 509.942 191.565 509.942C190.818 509.942 190.166 510.17 189.608 510.626C189.064 511.069 188.639 511.703 188.335 512.526C188.044 513.349 187.898 514.306 187.898 515.395C187.898 516.421 188.05 517.339 188.354 518.15C188.671 518.948 189.114 519.569 189.684 520.012C190.254 520.455 190.913 520.677 191.66 520.677C192.534 520.677 193.307 520.411 193.978 519.879C194.65 519.334 195.074 518.65 195.251 517.827H195.783C195.707 518.422 195.669 518.961 195.669 519.442C195.669 519.809 195.688 520.107 195.726 520.335H195.612C195.435 520.335 195.226 520.367 194.985 520.43C194.745 520.481 194.548 520.531 194.396 520.582C194.257 520.633 194.156 520.664 194.092 520.677C193.611 520.842 193.174 520.968 192.781 521.057C192.389 521.146 191.983 521.19 191.565 521.19C190.425 521.19 189.431 520.956 188.582 520.487C187.746 520.018 187.1 519.353 186.644 518.492C186.188 517.618 185.96 516.586 185.96 515.395ZM197.311 516.991C197.311 515.699 197.634 514.686 198.28 513.951C198.926 513.204 199.876 512.83 201.13 512.83C202.384 512.83 203.334 513.204 203.98 513.951C204.626 514.686 204.949 515.699 204.949 516.991C204.949 518.308 204.626 519.341 203.98 520.088C203.334 520.823 202.384 521.19 201.13 521.19C199.876 521.19 198.926 520.823 198.28 520.088C197.634 519.341 197.311 518.308 197.311 516.991ZM199.04 517.029C199.04 518.308 199.199 519.239 199.515 519.822C199.845 520.392 200.383 520.677 201.13 520.677C201.878 520.677 202.41 520.392 202.726 519.822C203.056 519.239 203.22 518.308 203.22 517.029C203.22 515.737 203.056 514.8 202.726 514.217C202.41 513.634 201.878 513.343 201.13 513.343C200.383 513.343 199.845 513.634 199.515 514.217C199.199 514.8 199.04 515.737 199.04 517.029ZM215.203 520.506V521H211.498V520.506L212.372 520.544C212.537 520.506 212.619 520.386 212.619 520.183V515.87C212.619 515.262 212.588 514.793 212.524 514.464C212.474 514.135 212.36 513.881 212.182 513.704C212.005 513.527 211.726 513.438 211.346 513.438C210.624 513.438 210.035 513.748 209.579 514.369C209.136 514.977 208.895 515.8 208.857 516.839V520.183C208.857 520.424 208.94 520.544 209.104 520.544L209.978 520.506V521H206.273V520.506L206.976 520.544C207.141 520.506 207.223 520.386 207.223 520.183V513.856C207.223 513.641 207.141 513.514 206.976 513.476L206.273 513.514V513.02H208.952C208.889 513.21 208.857 513.432 208.857 513.685V514.73C209.123 514.135 209.503 513.672 209.997 513.343C210.491 513.001 211.061 512.83 211.707 512.83C212.607 512.83 213.253 513.045 213.645 513.476C214.051 513.894 214.253 514.578 214.253 515.528V520.183C214.253 520.424 214.336 520.544 214.5 520.544L215.203 520.506ZM218.84 513.02H220.93V513.495H218.84V519.328C218.84 519.809 218.897 520.139 219.011 520.316C219.125 520.481 219.327 520.563 219.619 520.563C219.809 520.563 220.005 520.493 220.208 520.354C220.41 520.202 220.543 520.018 220.607 519.803L221.006 520.05C220.752 520.759 220.081 521.114 218.992 521.114C218.346 521.114 217.883 520.962 217.605 520.658C217.339 520.354 217.206 519.86 217.206 519.176V513.495H216.066V513.02C216.572 513.02 216.959 512.976 217.225 512.887C217.491 512.786 217.7 512.602 217.852 512.336C218.016 512.07 218.168 511.652 218.308 511.082H218.84V513.02ZM223.846 508.783C224.15 508.783 224.397 508.865 224.587 509.03C224.79 509.195 224.891 509.41 224.891 509.676C224.891 509.967 224.796 510.195 224.606 510.36C224.416 510.512 224.163 510.588 223.846 510.588C223.542 510.588 223.295 510.512 223.105 510.36C222.915 510.195 222.82 509.967 222.82 509.676C222.82 509.41 222.915 509.195 223.105 509.03C223.295 508.865 223.542 508.783 223.846 508.783ZM224.796 520.183C224.796 520.424 224.878 520.544 225.043 520.544L225.727 520.506V521H222.212V520.506L222.915 520.544C223.08 520.544 223.162 520.424 223.162 520.183V513.856C223.162 513.641 223.086 513.514 222.934 513.476L222.231 513.514V513.02H224.796V520.183ZM235.985 520.506V521H232.28V520.506L233.154 520.544C233.318 520.506 233.401 520.386 233.401 520.183V515.87C233.401 515.262 233.369 514.793 233.306 514.464C233.255 514.135 233.141 513.881 232.964 513.704C232.786 513.527 232.508 513.438 232.128 513.438C231.406 513.438 230.817 513.748 230.361 514.369C229.917 514.977 229.677 515.8 229.639 516.839V520.183C229.639 520.424 229.721 520.544 229.886 520.544L230.76 520.506V521H227.055V520.506L227.758 520.544C227.922 520.506 228.005 520.386 228.005 520.183V513.856C228.005 513.641 227.922 513.514 227.758 513.476L227.055 513.514V513.02H229.734C229.67 513.21 229.639 513.432 229.639 513.685V514.73C229.905 514.135 230.285 513.672 230.779 513.343C231.273 513.001 231.843 512.83 232.489 512.83C233.388 512.83 234.034 513.045 234.427 513.476C234.832 513.894 235.035 514.578 235.035 515.528V520.183C235.035 520.424 235.117 520.544 235.282 520.544L235.985 520.506ZM245.663 520.506V521H242.965C243.028 520.848 243.06 520.392 243.06 519.632V519.385C242.807 519.968 242.42 520.417 241.901 520.734C241.394 521.038 240.786 521.19 240.077 521.19C239.228 521.19 238.614 520.956 238.234 520.487C237.867 520.018 237.683 519.252 237.683 518.188V513.856C237.683 513.603 237.601 513.476 237.436 513.476L236.752 513.514V513.02H239.317V518.188C239.317 519.049 239.393 519.664 239.545 520.031C239.697 520.386 240.007 520.563 240.476 520.563C241.198 520.563 241.793 520.291 242.262 519.746C242.731 519.189 242.997 518.429 243.06 517.466L243.079 513.875C243.079 513.609 243.003 513.476 242.851 513.476L241.958 513.514V513.02H244.732V520.183C244.732 520.424 244.814 520.544 244.979 520.544L245.663 520.506ZM243.079 516.82V516.706V516.82ZM250.82 512.83C251.821 512.83 252.625 513.153 253.233 513.799C253.854 514.432 254.177 515.306 254.202 516.421V516.972H248.73C248.73 518.125 248.926 519.011 249.319 519.632C249.724 520.24 250.326 520.55 251.124 520.563C251.757 520.563 252.289 520.405 252.72 520.088C253.163 519.771 253.486 519.379 253.689 518.91L254.126 519.233C253.873 519.841 253.442 520.322 252.834 520.677C252.239 521.019 251.58 521.19 250.858 521.19C248.287 521.19 247.001 519.803 247.001 517.029C247.001 515.648 247.324 514.603 247.97 513.894C248.616 513.185 249.566 512.83 250.82 512.83ZM250.82 513.343C250.111 513.343 249.585 513.634 249.243 514.217C248.914 514.8 248.749 515.56 248.749 516.497H252.207C252.334 516.497 252.429 516.453 252.492 516.364C252.555 516.275 252.587 516.111 252.587 515.87C252.587 515.009 252.448 514.375 252.169 513.97C251.903 513.552 251.453 513.343 250.82 513.343Z" fill="#514C4C"/>
<path d="M74.285 91.6C74.4623 91.6253 74.7157 91.638 75.045 91.638H83.006C83.4113 91.638 83.6647 91.6253 83.766 91.6V94.564H83.272C83.272 93.7407 83.0883 93.139 82.721 92.759C82.3663 92.3663 81.771 92.17 80.935 92.17H80.137C80.0103 92.17 79.9343 92.2397 79.909 92.379V102.069C79.909 102.348 80.0357 102.487 80.289 102.487L81.296 102.449V103H76.755V102.449L77.781 102.487C77.895 102.487 77.9837 102.443 78.047 102.354C78.1103 102.253 78.142 102.139 78.142 102.012V92.398C78.142 92.246 78.066 92.17 77.914 92.17H77.135C76.299 92.17 75.6973 92.3663 75.33 92.759C74.9627 93.139 74.779 93.7407 74.779 94.564H74.285V91.6ZM87.6871 94.83C88.6878 94.83 89.4921 95.153 90.1001 95.799C90.7208 96.4323 91.0438 97.3063 91.0691 98.421V98.972H85.5971C85.5971 100.125 85.7935 101.011 86.1861 101.632C86.5915 102.24 87.1931 102.55 87.9911 102.563C88.6245 102.563 89.1565 102.405 89.5871 102.088C90.0305 101.771 90.3535 101.379 90.5561 100.91L90.9931 101.233C90.7398 101.841 90.3091 102.322 89.7011 102.677C89.1058 103.019 88.4471 103.19 87.7251 103.19C85.1538 103.19 83.8681 101.803 83.8681 99.029C83.8681 97.6483 84.1911 96.6033 84.8371 95.894C85.4831 95.1847 86.4331 94.83 87.6871 94.83ZM87.6871 95.343C86.9778 95.343 86.4521 95.6343 86.1101 96.217C85.7808 96.7997 85.6161 97.5597 85.6161 98.497H89.0741C89.2008 98.497 89.2958 98.4527 89.3591 98.364C89.4225 98.2753 89.4541 98.1107 89.4541 97.87C89.4541 97.0087 89.3148 96.3753 89.0361 95.97C88.7701 95.552 88.3205 95.343 87.6871 95.343ZM92.4033 102.506L93.1063 102.544C93.2709 102.506 93.3533 102.386 93.3533 102.183V89.947C93.3533 89.7317 93.2773 89.5987 93.1253 89.548L92.4223 89.586V89.111H94.9873V102.183C94.9873 102.424 95.0696 102.544 95.2343 102.544L95.9183 102.506V103H92.4033V102.506ZM97.2461 102.506L97.9491 102.544C98.1137 102.506 98.1961 102.386 98.1961 102.183V89.947C98.1961 89.7317 98.1201 89.5987 97.9681 89.548L97.2651 89.586V89.111H99.8301V102.183C99.8301 102.424 99.9124 102.544 100.077 102.544L100.761 102.506V103H97.2461V102.506ZM108.848 95.02H110.938V95.495H108.848V101.328C108.848 101.809 108.905 102.139 109.019 102.316C109.133 102.481 109.335 102.563 109.627 102.563C109.817 102.563 110.013 102.493 110.216 102.354C110.418 102.202 110.551 102.018 110.615 101.803L111.014 102.05C110.76 102.759 110.089 103.114 109 103.114C108.354 103.114 107.891 102.962 107.613 102.658C107.347 102.354 107.214 101.86 107.214 101.176V95.495H106.074V95.02C106.58 95.02 106.967 94.9757 107.233 94.887C107.499 94.7857 107.708 94.602 107.86 94.336C108.024 94.07 108.176 93.652 108.316 93.082H108.848V95.02ZM121.15 102.506V103H117.445V102.506L118.319 102.544C118.483 102.506 118.566 102.386 118.566 102.183V97.87C118.566 97.262 118.534 96.7933 118.471 96.464C118.42 96.1347 118.306 95.8813 118.129 95.704C117.951 95.5267 117.673 95.438 117.293 95.438C116.571 95.438 115.982 95.7483 115.526 96.369C115.082 96.977 114.842 97.8003 114.804 98.839V102.183C114.804 102.424 114.886 102.544 115.051 102.544L115.925 102.506V103H112.22V102.506L112.923 102.544C113.087 102.506 113.17 102.386 113.17 102.183V89.966C113.17 89.7 113.087 89.567 112.923 89.567L112.22 89.605V89.13H114.804V96.73C115.07 96.1347 115.45 95.6723 115.944 95.343C116.438 95.001 117.008 94.83 117.654 94.83C118.553 94.83 119.199 95.0453 119.592 95.476C119.997 95.894 120.2 96.578 120.2 97.528V102.183C120.2 102.424 120.282 102.544 120.447 102.544L121.15 102.506ZM126.021 94.83C127.022 94.83 127.826 95.153 128.434 95.799C129.055 96.4323 129.378 97.3063 129.403 98.421V98.972H123.931C123.931 100.125 124.127 101.011 124.52 101.632C124.925 102.24 125.527 102.55 126.325 102.563C126.958 102.563 127.49 102.405 127.921 102.088C128.364 101.771 128.687 101.379 128.89 100.91L129.327 101.233C129.074 101.841 128.643 102.322 128.035 102.677C127.44 103.019 126.781 103.19 126.059 103.19C123.488 103.19 122.202 101.803 122.202 99.029C122.202 97.6483 122.525 96.6033 123.171 95.894C123.817 95.1847 124.767 94.83 126.021 94.83ZM126.021 95.343C125.312 95.343 124.786 95.6343 124.444 96.217C124.115 96.7997 123.95 97.5597 123.95 98.497H127.408C127.535 98.497 127.63 98.4527 127.693 98.364C127.756 98.2753 127.788 98.1107 127.788 97.87C127.788 97.0087 127.649 96.3753 127.37 95.97C127.104 95.552 126.654 95.343 126.021 95.343ZM135.178 100.302L135.672 100.264C135.672 100.733 135.799 101.151 136.052 101.518C136.305 101.885 136.641 102.17 137.059 102.373C137.477 102.576 137.933 102.677 138.427 102.677C138.934 102.677 139.326 102.55 139.605 102.297C139.884 102.031 140.023 101.676 140.023 101.233C140.023 100.878 139.922 100.587 139.719 100.359C139.516 100.131 139.174 99.9473 138.693 99.808L136.869 99.295C136.362 99.143 135.963 98.8897 135.672 98.535C135.381 98.1677 135.235 97.718 135.235 97.186C135.235 96.4893 135.495 95.9257 136.014 95.495C136.533 95.0517 137.243 94.83 138.142 94.83C138.395 94.83 138.617 94.849 138.807 94.887C139.01 94.925 139.257 94.9883 139.548 95.077C139.941 95.191 140.232 95.248 140.422 95.248C140.612 95.248 140.789 95.1973 140.954 95.096L140.84 97.262H140.422C140.422 96.7553 140.219 96.312 139.814 95.932C139.421 95.5393 138.883 95.343 138.199 95.343C137.718 95.343 137.338 95.4697 137.059 95.723C136.793 95.9763 136.66 96.2993 136.66 96.692C136.66 97.3127 137.053 97.7307 137.838 97.946L139.662 98.459C140.308 98.6363 140.764 98.9023 141.03 99.257C141.296 99.599 141.429 100.049 141.429 100.606C141.429 101.429 141.138 102.069 140.555 102.525C139.972 102.968 139.212 103.19 138.275 103.19C138.009 103.19 137.73 103.158 137.439 103.095C137.16 103.044 136.73 102.937 136.147 102.772C135.957 102.721 135.786 102.696 135.634 102.696C135.381 102.696 135.197 102.734 135.083 102.81L135.178 100.302ZM145.308 95.02H147.398V95.495H145.308V101.328C145.308 101.809 145.365 102.139 145.479 102.316C145.593 102.481 145.795 102.563 146.087 102.563C146.277 102.563 146.473 102.493 146.676 102.354C146.878 102.202 147.011 102.018 147.075 101.803L147.474 102.05C147.22 102.759 146.549 103.114 145.46 103.114C144.814 103.114 144.351 102.962 144.073 102.658C143.807 102.354 143.674 101.86 143.674 101.176V95.495H142.534V95.02C143.04 95.02 143.427 94.9757 143.693 94.887C143.959 94.7857 144.168 94.602 144.32 94.336C144.484 94.07 144.636 93.652 144.776 93.082H145.308V95.02ZM148.68 98.991C148.68 97.699 149.003 96.6857 149.649 95.951C150.295 95.2037 151.245 94.83 152.499 94.83C153.753 94.83 154.703 95.2037 155.349 95.951C155.995 96.6857 156.318 97.699 156.318 98.991C156.318 100.308 155.995 101.341 155.349 102.088C154.703 102.823 153.753 103.19 152.499 103.19C151.245 103.19 150.295 102.823 149.649 102.088C149.003 101.341 148.68 100.308 148.68 98.991ZM150.409 99.029C150.409 100.308 150.567 101.239 150.884 101.822C151.213 102.392 151.751 102.677 152.499 102.677C153.246 102.677 153.778 102.392 154.095 101.822C154.424 101.239 154.589 100.308 154.589 99.029C154.589 97.737 154.424 96.7997 154.095 96.217C153.778 95.6343 153.246 95.343 152.499 95.343C151.751 95.343 151.213 95.6343 150.884 96.217C150.567 96.7997 150.409 97.737 150.409 99.029ZM162.43 94.83C162.924 94.83 163.304 94.9693 163.57 95.248C163.848 95.5267 163.988 95.8813 163.988 96.312C163.988 96.6033 163.912 96.825 163.76 96.977C163.62 97.129 163.43 97.205 163.19 97.205C163.012 97.205 162.848 97.1607 162.696 97.072C162.556 96.9707 162.487 96.8187 162.487 96.616C162.487 96.502 162.512 96.3563 162.563 96.179C162.613 96.0017 162.639 95.8623 162.639 95.761C162.639 95.6597 162.601 95.571 162.525 95.495C162.461 95.4063 162.354 95.362 162.202 95.362C161.809 95.362 161.467 95.552 161.176 95.932C160.884 96.2993 160.656 96.7617 160.492 97.319C160.327 97.8637 160.232 98.3893 160.207 98.896V102.183C160.207 102.424 160.289 102.544 160.454 102.544L161.613 102.506V103H157.718V102.506L158.326 102.544C158.49 102.544 158.573 102.424 158.573 102.183V95.856C158.573 95.6027 158.49 95.476 158.326 95.476L157.642 95.514V95.02H160.321C160.295 95.096 160.27 95.2227 160.245 95.4C160.219 95.5647 160.207 95.7293 160.207 95.894V96.825C160.498 96.1157 160.821 95.609 161.176 95.305C161.543 94.9883 161.961 94.83 162.43 94.83ZM173.408 95.02V95.514L172.629 95.476H172.591C172.388 95.476 172.23 95.5963 172.116 95.837L168.107 105.508C167.803 106.255 167.48 106.781 167.138 107.085C166.796 107.389 166.372 107.541 165.865 107.541C165.523 107.541 165.232 107.459 164.991 107.294C164.763 107.129 164.636 106.901 164.611 106.61C164.611 106.293 164.681 106.053 164.82 105.888C164.972 105.723 165.149 105.641 165.352 105.641C165.542 105.641 165.688 105.679 165.789 105.755C165.89 105.844 165.985 105.958 166.074 106.097C166.087 106.122 166.118 106.167 166.169 106.23C166.22 106.306 166.277 106.357 166.34 106.382C166.403 106.42 166.473 106.439 166.549 106.439C166.701 106.439 166.853 106.363 167.005 106.211C167.17 106.072 167.309 105.856 167.423 105.565L168.525 102.924L165.238 95.723C165.162 95.5583 165.061 95.476 164.934 95.476L164.003 95.514V95.02H168.164V95.514L167.309 95.476C167.22 95.476 167.151 95.514 167.1 95.59C167.049 95.6533 167.043 95.723 167.081 95.799L169.399 100.891L171.546 95.761C171.559 95.7357 171.565 95.6977 171.565 95.647C171.565 95.533 171.495 95.476 171.356 95.476L170.463 95.514V95.02H173.408ZM185.816 102.506V103H183.118C183.131 102.911 183.144 102.797 183.156 102.658C183.182 102.506 183.194 102.386 183.194 102.297L183.232 101.556C182.954 102.101 182.593 102.493 182.149 102.734C181.719 102.975 181.199 103.095 180.591 103.095C179.793 103.095 179.185 102.918 178.767 102.563C178.362 102.196 178.159 101.657 178.159 100.948C178.159 99.9727 178.565 99.257 179.375 98.801C180.199 98.3323 181.484 98.098 183.232 98.098V96.996C183.232 96.4007 183.093 95.9763 182.814 95.723C182.536 95.4697 182.086 95.343 181.465 95.343C180.503 95.343 180.021 95.609 180.021 96.141C180.021 96.2423 180.047 96.3627 180.097 96.502C180.161 96.6287 180.192 96.749 180.192 96.863C180.192 97.0783 180.123 97.243 179.983 97.357C179.844 97.4583 179.667 97.509 179.451 97.509C179.185 97.509 178.976 97.4267 178.824 97.262C178.685 97.0973 178.615 96.882 178.615 96.616C178.615 96.084 178.894 95.6533 179.451 95.324C180.009 94.9947 180.756 94.83 181.693 94.83C183.809 94.83 184.866 95.723 184.866 97.509V102.183C184.866 102.424 184.949 102.544 185.113 102.544L185.816 102.506ZM181.161 102.411C181.719 102.411 182.194 102.183 182.586 101.727C182.979 101.258 183.194 100.657 183.232 99.922V98.611C182.042 98.611 181.187 98.7883 180.667 99.143C180.148 99.485 179.888 100.036 179.888 100.796C179.888 101.328 179.996 101.733 180.211 102.012C180.439 102.278 180.756 102.411 181.161 102.411ZM186.599 89.13H189.183V96.502C189.652 95.3873 190.482 94.83 191.672 94.83C193.864 94.83 194.959 96.2297 194.959 99.029C194.959 100.41 194.662 101.448 194.066 102.145C193.471 102.842 192.565 103.19 191.349 103.19C190.729 103.19 190.26 103.089 189.943 102.886C189.627 102.683 189.323 102.392 189.031 102.012C188.981 101.898 188.867 101.841 188.689 101.841C188.512 101.841 188.379 101.955 188.29 102.183C188.202 102.411 188.157 102.715 188.157 103.095H187.53V89.947C187.53 89.6937 187.448 89.567 187.283 89.567L186.599 89.605V89.13ZM189.221 99.504C189.221 100.505 189.386 101.284 189.715 101.841C190.045 102.398 190.589 102.677 191.349 102.677C191.843 102.677 192.223 102.569 192.489 102.354C192.755 102.126 192.945 101.752 193.059 101.233C193.173 100.714 193.23 99.979 193.23 99.029C193.23 98.041 193.18 97.2937 193.078 96.787C192.99 96.2677 192.819 95.9003 192.565 95.685C192.312 95.457 191.945 95.343 191.463 95.343C190.754 95.343 190.203 95.647 189.81 96.255C189.418 96.8503 189.221 97.6673 189.221 98.706V99.504ZM196.013 98.991C196.013 97.699 196.336 96.6857 196.982 95.951C197.628 95.2037 198.578 94.83 199.832 94.83C201.086 94.83 202.036 95.2037 202.682 95.951C203.328 96.6857 203.651 97.699 203.651 98.991C203.651 100.308 203.328 101.341 202.682 102.088C202.036 102.823 201.086 103.19 199.832 103.19C198.578 103.19 197.628 102.823 196.982 102.088C196.336 101.341 196.013 100.308 196.013 98.991ZM197.742 99.029C197.742 100.308 197.9 101.239 198.217 101.822C198.546 102.392 199.084 102.677 199.832 102.677C200.579 102.677 201.111 102.392 201.428 101.822C201.757 101.239 201.922 100.308 201.922 99.029C201.922 97.737 201.757 96.7997 201.428 96.217C201.111 95.6343 200.579 95.343 199.832 95.343C199.084 95.343 198.546 95.6343 198.217 96.217C197.9 96.7997 197.742 97.737 197.742 99.029ZM213.601 102.506V103H210.903C210.966 102.848 210.998 102.392 210.998 101.632V101.385C210.744 101.968 210.358 102.417 209.839 102.734C209.332 103.038 208.724 103.19 208.015 103.19C207.166 103.19 206.552 102.956 206.172 102.487C205.804 102.018 205.621 101.252 205.621 100.188V95.856C205.621 95.6027 205.538 95.476 205.374 95.476L204.69 95.514V95.02H207.255V100.188C207.255 101.049 207.331 101.664 207.483 102.031C207.635 102.386 207.945 102.563 208.414 102.563C209.136 102.563 209.731 102.291 210.2 101.746C210.668 101.189 210.934 100.429 210.998 99.466L211.017 95.875C211.017 95.609 210.941 95.476 210.789 95.476L209.896 95.514V95.02H212.67V102.183C212.67 102.424 212.752 102.544 212.917 102.544L213.601 102.506ZM211.017 98.82V98.706V98.82ZM217.522 95.02H219.612V95.495H217.522V101.328C217.522 101.809 217.579 102.139 217.693 102.316C217.807 102.481 218.01 102.563 218.301 102.563C218.491 102.563 218.688 102.493 218.89 102.354C219.093 102.202 219.226 102.018 219.289 101.803L219.688 102.05C219.435 102.759 218.764 103.114 217.674 103.114C217.028 103.114 216.566 102.962 216.287 102.658C216.021 102.354 215.888 101.86 215.888 101.176V95.495H214.748V95.02C215.255 95.02 215.641 94.9757 215.907 94.887C216.173 94.7857 216.382 94.602 216.534 94.336C216.699 94.07 216.851 93.652 216.99 93.082H217.522V95.02ZM238.008 95.02V95.514L237.229 95.476C237.039 95.476 236.906 95.5837 236.83 95.799L233.999 103.19H233.581L231.035 97.262L228.413 103.19H228.033L225.354 95.723C225.278 95.5583 225.171 95.476 225.031 95.476L224.157 95.514V95.02H228.204V95.514L227.368 95.476H227.33C227.216 95.476 227.134 95.514 227.083 95.59C227.045 95.666 227.045 95.7547 227.083 95.856L228.869 100.891L231.472 94.925H231.871L234.398 100.777L236.203 95.799L236.241 95.647C236.241 95.5203 236.159 95.4633 235.994 95.476L234.987 95.514V95.02H238.008ZM247.767 102.506V103H244.062V102.506L244.936 102.544C245.101 102.506 245.183 102.386 245.183 102.183V97.87C245.183 97.262 245.151 96.7933 245.088 96.464C245.037 96.1347 244.923 95.8813 244.746 95.704C244.569 95.5267 244.29 95.438 243.91 95.438C243.188 95.438 242.599 95.7483 242.143 96.369C241.7 96.977 241.459 97.8003 241.421 98.839V102.183C241.421 102.424 241.503 102.544 241.668 102.544L242.542 102.506V103H238.837V102.506L239.54 102.544C239.705 102.506 239.787 102.386 239.787 102.183V89.966C239.787 89.7 239.705 89.567 239.54 89.567L238.837 89.605V89.13H241.421V96.73C241.687 96.1347 242.067 95.6723 242.561 95.343C243.055 95.001 243.625 94.83 244.271 94.83C245.17 94.83 245.816 95.0453 246.209 95.476C246.614 95.894 246.817 96.578 246.817 97.528V102.183C246.817 102.424 246.899 102.544 247.064 102.544L247.767 102.506ZM257.312 95.02V95.514L256.533 95.476H256.495C256.293 95.476 256.134 95.5963 256.02 95.837L252.011 105.508C251.707 106.255 251.384 106.781 251.042 107.085C250.7 107.389 250.276 107.541 249.769 107.541C249.427 107.541 249.136 107.459 248.895 107.294C248.667 107.129 248.541 106.901 248.515 106.61C248.515 106.293 248.585 106.053 248.724 105.888C248.876 105.723 249.054 105.641 249.256 105.641C249.446 105.641 249.592 105.679 249.693 105.755C249.795 105.844 249.89 105.958 249.978 106.097C249.991 106.122 250.023 106.167 250.073 106.23C250.124 106.306 250.181 106.357 250.244 106.382C250.308 106.42 250.377 106.439 250.453 106.439C250.605 106.439 250.757 106.363 250.909 106.211C251.074 106.072 251.213 105.856 251.327 105.565L252.429 102.924L249.142 95.723C249.066 95.5583 248.965 95.476 248.838 95.476L247.907 95.514V95.02H252.068V95.514L251.213 95.476C251.125 95.476 251.055 95.514 251.004 95.59C250.954 95.6533 250.947 95.723 250.985 95.799L253.303 100.891L255.45 95.761C255.463 95.7357 255.469 95.6977 255.469 95.647C255.469 95.533 255.4 95.476 255.26 95.476L254.367 95.514V95.02H257.312ZM270.709 95.02V95.514L269.93 95.476H269.892C269.689 95.476 269.531 95.5963 269.417 95.837L265.408 105.508C265.104 106.255 264.781 106.781 264.439 107.085C264.097 107.389 263.672 107.541 263.166 107.541C262.824 107.541 262.532 107.459 262.292 107.294C262.064 107.129 261.937 106.901 261.912 106.61C261.912 106.293 261.981 106.053 262.121 105.888C262.273 105.723 262.45 105.641 262.653 105.641C262.843 105.641 262.988 105.679 263.09 105.755C263.191 105.844 263.286 105.958 263.375 106.097C263.387 106.122 263.419 106.167 263.47 106.23C263.52 106.306 263.577 106.357 263.641 106.382C263.704 106.42 263.774 106.439 263.85 106.439C264.002 106.439 264.154 106.363 264.306 106.211C264.47 106.072 264.61 105.856 264.724 105.565L265.826 102.924L262.539 95.723C262.463 95.5583 262.361 95.476 262.235 95.476L261.304 95.514V95.02H265.465V95.514L264.61 95.476C264.521 95.476 264.451 95.514 264.401 95.59C264.35 95.6533 264.344 95.723 264.382 95.799L266.7 100.891L268.847 95.761C268.859 95.7357 268.866 95.6977 268.866 95.647C268.866 95.533 268.796 95.476 268.657 95.476L267.764 95.514V95.02H270.709ZM271.066 98.991C271.066 97.699 271.389 96.6857 272.035 95.951C272.681 95.2037 273.631 94.83 274.885 94.83C276.139 94.83 277.089 95.2037 277.735 95.951C278.381 96.6857 278.704 97.699 278.704 98.991C278.704 100.308 278.381 101.341 277.735 102.088C277.089 102.823 276.139 103.19 274.885 103.19C273.631 103.19 272.681 102.823 272.035 102.088C271.389 101.341 271.066 100.308 271.066 98.991ZM272.795 99.029C272.795 100.308 272.954 101.239 273.27 101.822C273.6 102.392 274.138 102.677 274.885 102.677C275.633 102.677 276.165 102.392 276.481 101.822C276.811 101.239 276.975 100.308 276.975 99.029C276.975 97.737 276.811 96.7997 276.481 96.217C276.165 95.6343 275.633 95.343 274.885 95.343C274.138 95.343 273.6 95.6343 273.27 96.217C272.954 96.7997 272.795 97.737 272.795 99.029ZM288.654 102.506V103H285.956C286.02 102.848 286.051 102.392 286.051 101.632V101.385C285.798 101.968 285.412 102.417 284.892 102.734C284.386 103.038 283.778 103.19 283.068 103.19C282.22 103.19 281.605 102.956 281.225 102.487C280.858 102.018 280.674 101.252 280.674 100.188V95.856C280.674 95.6027 280.592 95.476 280.427 95.476L279.743 95.514V95.02H282.308V100.188C282.308 101.049 282.384 101.664 282.536 102.031C282.688 102.386 282.999 102.563 283.467 102.563C284.189 102.563 284.785 102.291 285.253 101.746C285.722 101.189 285.988 100.429 286.051 99.466L286.07 95.875C286.07 95.609 285.994 95.476 285.842 95.476L284.949 95.514V95.02H287.723V102.183C287.723 102.424 287.806 102.544 287.97 102.544L288.654 102.506ZM286.07 98.82V98.706V98.82ZM294.78 94.83C295.274 94.83 295.654 94.9693 295.92 95.248C296.199 95.5267 296.338 95.8813 296.338 96.312C296.338 96.6033 296.262 96.825 296.11 96.977C295.971 97.129 295.781 97.205 295.54 97.205C295.363 97.205 295.198 97.1607 295.046 97.072C294.907 96.9707 294.837 96.8187 294.837 96.616C294.837 96.502 294.862 96.3563 294.913 96.179C294.964 96.0017 294.989 95.8623 294.989 95.761C294.989 95.6597 294.951 95.571 294.875 95.495C294.812 95.4063 294.704 95.362 294.552 95.362C294.159 95.362 293.817 95.552 293.526 95.932C293.235 96.2993 293.007 96.7617 292.842 97.319C292.677 97.8637 292.582 98.3893 292.557 98.896V102.183C292.557 102.424 292.639 102.544 292.804 102.544L293.963 102.506V103H290.068V102.506L290.676 102.544C290.841 102.544 290.923 102.424 290.923 102.183V95.856C290.923 95.6027 290.841 95.476 290.676 95.476L289.992 95.514V95.02H292.671C292.646 95.096 292.62 95.2227 292.595 95.4C292.57 95.5647 292.557 95.7293 292.557 95.894V96.825C292.848 96.1157 293.171 95.609 293.526 95.305C293.893 94.9883 294.311 94.83 294.78 94.83ZM308.945 102.506V103H306.247C306.26 102.911 306.273 102.797 306.285 102.658C306.311 102.506 306.323 102.386 306.323 102.297L306.361 101.556C306.083 102.101 305.722 102.493 305.278 102.734C304.848 102.975 304.328 103.095 303.72 103.095C302.922 103.095 302.314 102.918 301.896 102.563C301.491 102.196 301.288 101.657 301.288 100.948C301.288 99.9727 301.694 99.257 302.504 98.801C303.328 98.3323 304.613 98.098 306.361 98.098V96.996C306.361 96.4007 306.222 95.9763 305.943 95.723C305.665 95.4697 305.215 95.343 304.594 95.343C303.632 95.343 303.15 95.609 303.15 96.141C303.15 96.2423 303.176 96.3627 303.226 96.502C303.29 96.6287 303.321 96.749 303.321 96.863C303.321 97.0783 303.252 97.243 303.112 97.357C302.973 97.4583 302.796 97.509 302.58 97.509C302.314 97.509 302.105 97.4267 301.953 97.262C301.814 97.0973 301.744 96.882 301.744 96.616C301.744 96.084 302.023 95.6533 302.58 95.324C303.138 94.9947 303.885 94.83 304.822 94.83C306.938 94.83 307.995 95.723 307.995 97.509V102.183C307.995 102.424 308.078 102.544 308.242 102.544L308.945 102.506ZM304.29 102.411C304.848 102.411 305.323 102.183 305.715 101.727C306.108 101.258 306.323 100.657 306.361 99.922V98.611C305.171 98.611 304.316 98.7883 303.796 99.143C303.277 99.485 303.017 100.036 303.017 100.796C303.017 101.328 303.125 101.733 303.34 102.012C303.568 102.278 303.885 102.411 304.29 102.411ZM314.782 94.83C315.276 94.83 315.656 94.9693 315.922 95.248C316.201 95.5267 316.34 95.8813 316.34 96.312C316.34 96.6033 316.264 96.825 316.112 96.977C315.973 97.129 315.783 97.205 315.542 97.205C315.365 97.205 315.2 97.1607 315.048 97.072C314.909 96.9707 314.839 96.8187 314.839 96.616C314.839 96.502 314.864 96.3563 314.915 96.179C314.966 96.0017 314.991 95.8623 314.991 95.761C314.991 95.6597 314.953 95.571 314.877 95.495C314.814 95.4063 314.706 95.362 314.554 95.362C314.161 95.362 313.819 95.552 313.528 95.932C313.237 96.2993 313.009 96.7617 312.844 97.319C312.679 97.8637 312.584 98.3893 312.559 98.896V102.183C312.559 102.424 312.641 102.544 312.806 102.544L313.965 102.506V103H310.07V102.506L310.678 102.544C310.843 102.544 310.925 102.424 310.925 102.183V95.856C310.925 95.6027 310.843 95.476 310.678 95.476L309.994 95.514V95.02H312.673C312.648 95.096 312.622 95.2227 312.597 95.4C312.572 95.5647 312.559 95.7293 312.559 95.894V96.825C312.85 96.1157 313.173 95.609 313.528 95.305C313.895 94.9883 314.313 94.83 314.782 94.83ZM320.92 94.83C321.92 94.83 322.725 95.153 323.333 95.799C323.953 96.4323 324.276 97.3063 324.302 98.421V98.972H318.83C318.83 100.125 319.026 101.011 319.419 101.632C319.824 102.24 320.426 102.55 321.224 102.563C321.857 102.563 322.389 102.405 322.82 102.088C323.263 101.771 323.586 101.379 323.789 100.91L324.226 101.233C323.972 101.841 323.542 102.322 322.934 102.677C322.338 103.019 321.68 103.19 320.958 103.19C318.386 103.19 317.101 101.803 317.101 99.029C317.101 97.6483 317.424 96.6033 318.07 95.894C318.716 95.1847 319.666 94.83 320.92 94.83ZM320.92 95.343C320.21 95.343 319.685 95.6343 319.343 96.217C319.013 96.7997 318.849 97.5597 318.849 98.497H322.307C322.433 98.497 322.528 98.4527 322.592 98.364C322.655 98.2753 322.687 98.1107 322.687 97.87C322.687 97.0087 322.547 96.3753 322.269 95.97C322.003 95.552 321.553 95.343 320.92 95.343ZM79.453 116.83C79.947 116.83 80.327 116.969 80.593 117.248C80.8717 117.527 81.011 117.881 81.011 118.312C81.011 118.603 80.935 118.825 80.783 118.977C80.6437 119.129 80.4537 119.205 80.213 119.205C80.0357 119.205 79.871 119.161 79.719 119.072C79.5797 118.971 79.51 118.819 79.51 118.616C79.51 118.502 79.5353 118.356 79.586 118.179C79.6367 118.002 79.662 117.862 79.662 117.761C79.662 117.66 79.624 117.571 79.548 117.495C79.4847 117.406 79.377 117.362 79.225 117.362C78.8323 117.362 78.4903 117.552 78.199 117.932C77.9077 118.299 77.6797 118.762 77.515 119.319C77.3503 119.864 77.2553 120.389 77.23 120.896V124.183C77.23 124.424 77.3123 124.544 77.477 124.544L78.636 124.506V125H74.741V124.506L75.349 124.544C75.5137 124.544 75.596 124.424 75.596 124.183V117.856C75.596 117.603 75.5137 117.476 75.349 117.476L74.665 117.514V117.02H77.344C77.3187 117.096 77.2933 117.223 77.268 117.4C77.2427 117.565 77.23 117.729 77.23 117.894V118.825C77.5213 118.116 77.8443 117.609 78.199 117.305C78.5663 116.988 78.9843 116.83 79.453 116.83ZM90.5644 124.506V125H87.8664C87.9298 124.848 87.9614 124.392 87.9614 123.632V123.385C87.7081 123.968 87.3218 124.417 86.8024 124.734C86.2958 125.038 85.6878 125.19 84.9784 125.19C84.1298 125.19 83.5154 124.956 83.1354 124.487C82.7681 124.018 82.5844 123.252 82.5844 122.188V117.856C82.5844 117.603 82.5021 117.476 82.3374 117.476L81.6534 117.514V117.02H84.2184V122.188C84.2184 123.049 84.2944 123.664 84.4464 124.031C84.5984 124.386 84.9088 124.563 85.3774 124.563C86.0994 124.563 86.6948 124.291 87.1634 123.746C87.6321 123.189 87.8981 122.429 87.9614 121.466L87.9804 117.875C87.9804 117.609 87.9044 117.476 87.7524 117.476L86.8594 117.514V117.02H89.6334V124.183C89.6334 124.424 89.7158 124.544 89.8804 124.544L90.5644 124.506ZM87.9804 120.82V120.706V120.82ZM100.832 124.506V125H97.1273V124.506L98.0013 124.544C98.166 124.506 98.2483 124.386 98.2483 124.183V119.87C98.2483 119.262 98.2166 118.793 98.1533 118.464C98.1026 118.135 97.9886 117.881 97.8113 117.704C97.634 117.527 97.3553 117.438 96.9753 117.438C96.2533 117.438 95.6643 117.748 95.2083 118.369C94.765 118.977 94.5243 119.8 94.4863 120.839V124.183C94.4863 124.424 94.5686 124.544 94.7333 124.544L95.6073 124.506V125H91.9023V124.506L92.6053 124.544C92.77 124.506 92.8523 124.386 92.8523 124.183V117.856C92.8523 117.641 92.77 117.514 92.6053 117.476L91.9023 117.514V117.02H94.5813C94.518 117.21 94.4863 117.432 94.4863 117.685V118.73C94.7523 118.135 95.1323 117.672 95.6263 117.343C96.1203 117.001 96.6903 116.83 97.3363 116.83C98.2356 116.83 98.8816 117.045 99.2743 117.476C99.6796 117.894 99.8823 118.578 99.8823 119.528V124.183C99.8823 124.424 99.9646 124.544 100.129 124.544L100.832 124.506ZM110.815 124.506V125H107.11V124.506L107.984 124.544C108.148 124.506 108.231 124.386 108.231 124.183V119.87C108.231 119.262 108.199 118.793 108.136 118.464C108.085 118.135 107.971 117.881 107.794 117.704C107.616 117.527 107.338 117.438 106.958 117.438C106.236 117.438 105.647 117.748 105.191 118.369C104.747 118.977 104.507 119.8 104.469 120.839V124.183C104.469 124.424 104.551 124.544 104.716 124.544L105.59 124.506V125H101.885V124.506L102.588 124.544C102.752 124.506 102.835 124.386 102.835 124.183V117.856C102.835 117.641 102.752 117.514 102.588 117.476L101.885 117.514V117.02H104.564C104.5 117.21 104.469 117.432 104.469 117.685V118.73C104.735 118.135 105.115 117.672 105.609 117.343C106.103 117.001 106.673 116.83 107.319 116.83C108.218 116.83 108.864 117.045 109.257 117.476C109.662 117.894 109.865 118.578 109.865 119.528V124.183C109.865 124.424 109.947 124.544 110.112 124.544L110.815 124.506ZM113.501 112.783C113.805 112.783 114.052 112.865 114.242 113.03C114.445 113.195 114.546 113.41 114.546 113.676C114.546 113.967 114.451 114.195 114.261 114.36C114.071 114.512 113.818 114.588 113.501 114.588C113.197 114.588 112.95 114.512 112.76 114.36C112.57 114.195 112.475 113.967 112.475 113.676C112.475 113.41 112.57 113.195 112.76 113.03C112.95 112.865 113.197 112.783 113.501 112.783ZM114.451 124.183C114.451 124.424 114.533 124.544 114.698 124.544L115.382 124.506V125H111.867V124.506L112.57 124.544C112.735 124.544 112.817 124.424 112.817 124.183V117.856C112.817 117.641 112.741 117.514 112.589 117.476L111.886 117.514V117.02H114.451V124.183ZM125.64 124.506V125H121.935V124.506L122.809 124.544C122.974 124.506 123.056 124.386 123.056 124.183V119.87C123.056 119.262 123.024 118.793 122.961 118.464C122.91 118.135 122.796 117.881 122.619 117.704C122.442 117.527 122.163 117.438 121.783 117.438C121.061 117.438 120.472 117.748 120.016 118.369C119.573 118.977 119.332 119.8 119.294 120.839V124.183C119.294 124.424 119.376 124.544 119.541 124.544L120.415 124.506V125H116.71V124.506L117.413 124.544C117.578 124.506 117.66 124.386 117.66 124.183V117.856C117.66 117.641 117.578 117.514 117.413 117.476L116.71 117.514V117.02H119.389C119.326 117.21 119.294 117.432 119.294 117.685V118.73C119.56 118.135 119.94 117.672 120.434 117.343C120.928 117.001 121.498 116.83 122.144 116.83C123.043 116.83 123.689 117.045 124.082 117.476C124.487 117.894 124.69 118.578 124.69 119.528V124.183C124.69 124.424 124.772 124.544 124.937 124.544L125.64 124.506ZM133.437 116.507C133.311 116.507 133.108 116.577 132.829 116.716C132.563 116.855 132.348 117.026 132.183 117.229C133.121 117.698 133.589 118.515 133.589 119.68C133.589 120.516 133.292 121.2 132.696 121.732C132.101 122.251 131.316 122.511 130.34 122.511C129.808 122.511 129.314 122.416 128.858 122.226C128.428 122.492 128.212 122.771 128.212 123.062C128.212 123.531 128.567 123.765 129.276 123.765H131.803C132.741 123.765 133.444 123.968 133.912 124.373C134.394 124.778 134.634 125.456 134.634 126.406C134.634 127.052 134.444 127.622 134.064 128.116C133.697 128.61 133.171 128.99 132.487 129.256C131.803 129.522 131.012 129.655 130.112 129.655C128.998 129.655 128.136 129.44 127.528 129.009C126.933 128.578 126.635 127.951 126.635 127.128C126.635 126.621 126.775 126.191 127.053 125.836C127.345 125.481 127.775 125.171 128.345 124.905C127.408 124.728 126.939 124.31 126.939 123.651C126.939 123.41 127.003 123.208 127.129 123.043C127.269 122.866 127.503 122.644 127.832 122.378L128.345 121.96C127.965 121.719 127.661 121.409 127.433 121.029C127.218 120.636 127.11 120.187 127.11 119.68C127.11 118.831 127.408 118.147 128.003 117.628C128.611 117.096 129.39 116.83 130.34 116.83C130.872 116.83 131.354 116.906 131.784 117.058C132.101 116.627 132.487 116.247 132.943 115.918C133.412 115.576 133.773 115.405 134.026 115.405C134.343 115.405 134.565 115.494 134.691 115.671C134.831 115.836 134.9 116.026 134.9 116.241C134.9 116.406 134.843 116.564 134.729 116.716C134.615 116.868 134.47 116.944 134.292 116.944C134.14 116.944 134.026 116.925 133.95 116.887C133.874 116.836 133.792 116.76 133.703 116.659C133.627 116.558 133.539 116.507 133.437 116.507ZM130.34 122.074C130.936 122.074 131.341 121.897 131.556 121.542C131.784 121.175 131.898 120.554 131.898 119.68C131.898 118.831 131.784 118.23 131.556 117.875C131.328 117.52 130.923 117.343 130.34 117.343C129.758 117.343 129.352 117.514 129.124 117.856C128.909 118.185 128.801 118.793 128.801 119.68C128.801 120.301 128.846 120.782 128.934 121.124C129.023 121.466 129.175 121.713 129.39 121.865C129.618 122.004 129.935 122.074 130.34 122.074ZM129.618 125C129.251 125 128.909 125.101 128.592 125.304C128.276 125.507 128.022 125.766 127.832 126.083C127.655 126.412 127.566 126.748 127.566 127.09C127.566 127.711 127.775 128.211 128.193 128.591C128.624 128.971 129.257 129.161 130.093 129.161C131.145 129.161 131.955 128.92 132.525 128.439C133.095 127.958 133.38 127.324 133.38 126.539C133.38 126.02 133.228 125.633 132.924 125.38C132.633 125.127 132.164 125 131.518 125H129.618ZM147.111 124.506V125H144.413C144.426 124.911 144.439 124.797 144.451 124.658C144.477 124.506 144.489 124.386 144.489 124.297L144.527 123.556C144.249 124.101 143.888 124.493 143.444 124.734C143.014 124.975 142.494 125.095 141.886 125.095C141.088 125.095 140.48 124.918 140.062 124.563C139.657 124.196 139.454 123.657 139.454 122.948C139.454 121.973 139.86 121.257 140.67 120.801C141.494 120.332 142.779 120.098 144.527 120.098V118.996C144.527 118.401 144.388 117.976 144.109 117.723C143.831 117.47 143.381 117.343 142.76 117.343C141.798 117.343 141.316 117.609 141.316 118.141C141.316 118.242 141.342 118.363 141.392 118.502C141.456 118.629 141.487 118.749 141.487 118.863C141.487 119.078 141.418 119.243 141.278 119.357C141.139 119.458 140.962 119.509 140.746 119.509C140.48 119.509 140.271 119.427 140.119 119.262C139.98 119.097 139.91 118.882 139.91 118.616C139.91 118.084 140.189 117.653 140.746 117.324C141.304 116.995 142.051 116.83 142.988 116.83C145.104 116.83 146.161 117.723 146.161 119.509V124.183C146.161 124.424 146.244 124.544 146.408 124.544L147.111 124.506ZM142.456 124.411C143.014 124.411 143.489 124.183 143.881 123.727C144.274 123.258 144.489 122.657 144.527 121.922V120.611C143.337 120.611 142.482 120.788 141.962 121.143C141.443 121.485 141.183 122.036 141.183 122.796C141.183 123.328 141.291 123.733 141.506 124.012C141.734 124.278 142.051 124.411 142.456 124.411ZM152.62 124.43L153.38 124.487C153.608 124.487 153.722 124.348 153.722 124.069V114.588C153.722 114.322 153.614 114.189 153.399 114.189H153.361L152.62 114.227V113.657H160.866C161.018 113.657 161.113 113.651 161.151 113.638V116.583H160.638C160.638 115.747 160.423 115.139 159.992 114.759C159.561 114.379 158.877 114.189 157.94 114.189H155.717C155.565 114.189 155.489 114.271 155.489 114.436V119.015H156.914C157.37 119.015 157.731 118.844 157.997 118.502C158.276 118.147 158.415 117.672 158.415 117.077H158.928V121.447H158.415C158.415 120.877 158.276 120.421 157.997 120.079C157.718 119.724 157.357 119.547 156.914 119.547H155.489V124.088C155.489 124.202 155.521 124.297 155.584 124.373C155.66 124.449 155.749 124.487 155.85 124.487L156.838 124.43V125H152.62V124.43ZM170.646 124.506V125H167.948C168.012 124.848 168.043 124.392 168.043 123.632V123.385C167.79 123.968 167.404 124.417 166.884 124.734C166.378 125.038 165.77 125.19 165.06 125.19C164.212 125.19 163.597 124.956 163.217 124.487C162.85 124.018 162.666 123.252 162.666 122.188V117.856C162.666 117.603 162.584 117.476 162.419 117.476L161.735 117.514V117.02H164.3V122.188C164.3 123.049 164.376 123.664 164.528 124.031C164.68 124.386 164.991 124.563 165.459 124.563C166.181 124.563 166.777 124.291 167.245 123.746C167.714 123.189 167.98 122.429 168.043 121.466L168.062 117.875C168.062 117.609 167.986 117.476 167.834 117.476L166.941 117.514V117.02H169.715V124.183C169.715 124.424 169.798 124.544 169.962 124.544L170.646 124.506ZM168.062 120.82V120.706V120.82ZM180.914 124.506V125H177.209V124.506L178.083 124.544C178.248 124.506 178.33 124.386 178.33 124.183V119.87C178.33 119.262 178.299 118.793 178.235 118.464C178.185 118.135 178.071 117.881 177.893 117.704C177.716 117.527 177.437 117.438 177.057 117.438C176.335 117.438 175.746 117.748 175.29 118.369C174.847 118.977 174.606 119.8 174.568 120.839V124.183C174.568 124.424 174.651 124.544 174.815 124.544L175.689 124.506V125H171.984V124.506L172.687 124.544C172.852 124.506 172.934 124.386 172.934 124.183V117.856C172.934 117.641 172.852 117.514 172.687 117.476L171.984 117.514V117.02H174.663C174.6 117.21 174.568 117.432 174.568 117.685V118.73C174.834 118.135 175.214 117.672 175.708 117.343C176.202 117.001 176.772 116.83 177.418 116.83C178.318 116.83 178.964 117.045 179.356 117.476C179.762 117.894 179.964 118.578 179.964 119.528V124.183C179.964 124.424 180.047 124.544 180.211 124.544L180.914 124.506ZM181.967 121.029C181.967 119.648 182.264 118.603 182.86 117.894C183.468 117.185 184.367 116.83 185.558 116.83C186.14 116.83 186.615 116.976 186.983 117.267C187.363 117.558 187.616 117.932 187.743 118.388V111.947C187.743 111.694 187.66 111.567 187.496 111.567L186.622 111.605V111.13H189.396V124.183C189.396 124.424 189.478 124.544 189.643 124.544L190.346 124.506V125H187.61C187.635 124.899 187.648 124.797 187.648 124.696V124.278C187.648 124.113 187.654 123.987 187.667 123.898C187.679 123.809 187.686 123.752 187.686 123.727C187.534 124.196 187.287 124.557 186.945 124.81C186.615 125.063 186.159 125.19 185.577 125.19C184.285 125.19 183.36 124.854 182.803 124.183C182.245 123.499 181.967 122.448 181.967 121.029ZM183.715 121.029C183.715 121.954 183.765 122.676 183.867 123.195C183.981 123.714 184.171 124.094 184.437 124.335C184.703 124.563 185.083 124.677 185.577 124.677C186.349 124.677 186.894 124.424 187.211 123.917C187.54 123.41 187.705 122.606 187.705 121.504V120.706C187.705 119.642 187.527 118.819 187.173 118.236C186.818 117.641 186.28 117.343 185.558 117.343C184.874 117.343 184.392 117.66 184.114 118.293C183.848 118.926 183.715 119.838 183.715 121.029ZM196.181 116.83C196.675 116.83 197.055 116.969 197.321 117.248C197.599 117.527 197.739 117.881 197.739 118.312C197.739 118.603 197.663 118.825 197.511 118.977C197.371 119.129 197.181 119.205 196.941 119.205C196.763 119.205 196.599 119.161 196.447 119.072C196.307 118.971 196.238 118.819 196.238 118.616C196.238 118.502 196.263 118.356 196.314 118.179C196.364 118.002 196.39 117.862 196.39 117.761C196.39 117.66 196.352 117.571 196.276 117.495C196.212 117.406 196.105 117.362 195.953 117.362C195.56 117.362 195.218 117.552 194.927 117.932C194.635 118.299 194.407 118.762 194.243 119.319C194.078 119.864 193.983 120.389 193.958 120.896V124.183C193.958 124.424 194.04 124.544 194.205 124.544L195.364 124.506V125H191.469V124.506L192.077 124.544C192.241 124.544 192.324 124.424 192.324 124.183V117.856C192.324 117.603 192.241 117.476 192.077 117.476L191.393 117.514V117.02H194.072C194.046 117.096 194.021 117.223 193.996 117.4C193.97 117.565 193.958 117.729 193.958 117.894V118.825C194.249 118.116 194.572 117.609 194.927 117.305C195.294 116.988 195.712 116.83 196.181 116.83ZM206.171 124.506V125H203.473C203.486 124.911 203.498 124.797 203.511 124.658C203.536 124.506 203.549 124.386 203.549 124.297L203.587 123.556C203.308 124.101 202.947 124.493 202.504 124.734C202.073 124.975 201.554 125.095 200.946 125.095C200.148 125.095 199.54 124.918 199.122 124.563C198.717 124.196 198.514 123.657 198.514 122.948C198.514 121.973 198.919 121.257 199.73 120.801C200.553 120.332 201.839 120.098 203.587 120.098V118.996C203.587 118.401 203.448 117.976 203.169 117.723C202.89 117.47 202.441 117.343 201.82 117.343C200.857 117.343 200.376 117.609 200.376 118.141C200.376 118.242 200.401 118.363 200.452 118.502C200.515 118.629 200.547 118.749 200.547 118.863C200.547 119.078 200.477 119.243 200.338 119.357C200.199 119.458 200.021 119.509 199.806 119.509C199.54 119.509 199.331 119.427 199.179 119.262C199.04 119.097 198.97 118.882 198.97 118.616C198.97 118.084 199.249 117.653 199.806 117.324C200.363 116.995 201.111 116.83 202.048 116.83C204.163 116.83 205.221 117.723 205.221 119.509V124.183C205.221 124.424 205.303 124.544 205.468 124.544L206.171 124.506ZM201.516 124.411C202.073 124.411 202.548 124.183 202.941 123.727C203.334 123.258 203.549 122.657 203.587 121.922V120.611C202.396 120.611 201.541 120.788 201.022 121.143C200.503 121.485 200.243 122.036 200.243 122.796C200.243 123.328 200.351 123.733 200.566 124.012C200.794 124.278 201.111 124.411 201.516 124.411ZM208.854 112.783C209.158 112.783 209.405 112.865 209.595 113.03C209.797 113.195 209.899 113.41 209.899 113.676C209.899 113.967 209.804 114.195 209.614 114.36C209.424 114.512 209.17 114.588 208.854 114.588C208.55 114.588 208.303 114.512 208.113 114.36C207.923 114.195 207.828 113.967 207.828 113.676C207.828 113.41 207.923 113.195 208.113 113.03C208.303 112.865 208.55 112.783 208.854 112.783ZM209.804 124.183C209.804 124.424 209.886 124.544 210.051 124.544L210.735 124.506V125H207.22V124.506L207.923 124.544C208.087 124.544 208.17 124.424 208.17 124.183V117.856C208.17 117.641 208.094 117.514 207.942 117.476L207.239 117.514V117.02H209.804V124.183ZM212.328 122.302L212.822 122.264C212.822 122.733 212.949 123.151 213.202 123.518C213.456 123.885 213.791 124.17 214.209 124.373C214.627 124.576 215.083 124.677 215.577 124.677C216.084 124.677 216.477 124.55 216.755 124.297C217.034 124.031 217.173 123.676 217.173 123.233C217.173 122.878 217.072 122.587 216.869 122.359C216.667 122.131 216.325 121.947 215.843 121.808L214.019 121.295C213.513 121.143 213.114 120.89 212.822 120.535C212.531 120.168 212.385 119.718 212.385 119.186C212.385 118.489 212.645 117.926 213.164 117.495C213.684 117.052 214.393 116.83 215.292 116.83C215.546 116.83 215.767 116.849 215.957 116.887C216.16 116.925 216.407 116.988 216.698 117.077C217.091 117.191 217.382 117.248 217.572 117.248C217.762 117.248 217.94 117.197 218.104 117.096L217.99 119.262H217.572C217.572 118.755 217.37 118.312 216.964 117.932C216.572 117.539 216.033 117.343 215.349 117.343C214.868 117.343 214.488 117.47 214.209 117.723C213.943 117.976 213.81 118.299 213.81 118.692C213.81 119.313 214.203 119.731 214.988 119.946L216.812 120.459C217.458 120.636 217.914 120.902 218.18 121.257C218.446 121.599 218.579 122.049 218.579 122.606C218.579 123.429 218.288 124.069 217.705 124.525C217.123 124.968 216.363 125.19 215.425 125.19C215.159 125.19 214.881 125.158 214.589 125.095C214.311 125.044 213.88 124.937 213.297 124.772C213.107 124.721 212.936 124.696 212.784 124.696C212.531 124.696 212.347 124.734 212.233 124.81L212.328 122.302ZM223.693 116.83C224.694 116.83 225.498 117.153 226.106 117.799C226.727 118.432 227.05 119.306 227.075 120.421V120.972H221.603C221.603 122.125 221.799 123.011 222.192 123.632C222.597 124.24 223.199 124.55 223.997 124.563C224.63 124.563 225.162 124.405 225.593 124.088C226.036 123.771 226.359 123.379 226.562 122.91L226.999 123.233C226.746 123.841 226.315 124.322 225.707 124.677C225.112 125.019 224.453 125.19 223.731 125.19C221.16 125.19 219.874 123.803 219.874 121.029C219.874 119.648 220.197 118.603 220.843 117.894C221.489 117.185 222.439 116.83 223.693 116.83ZM223.693 117.343C222.984 117.343 222.458 117.634 222.116 118.217C221.787 118.8 221.622 119.56 221.622 120.497H225.08C225.207 120.497 225.302 120.453 225.365 120.364C225.428 120.275 225.46 120.111 225.46 119.87C225.46 119.009 225.321 118.375 225.042 117.97C224.776 117.552 224.326 117.343 223.693 117.343ZM233.197 116.83C233.691 116.83 234.071 116.969 234.337 117.248C234.616 117.527 234.755 117.881 234.755 118.312C234.755 118.603 234.679 118.825 234.527 118.977C234.388 119.129 234.198 119.205 233.957 119.205C233.78 119.205 233.615 119.161 233.463 119.072C233.324 118.971 233.254 118.819 233.254 118.616C233.254 118.502 233.279 118.356 233.33 118.179C233.381 118.002 233.406 117.862 233.406 117.761C233.406 117.66 233.368 117.571 233.292 117.495C233.229 117.406 233.121 117.362 232.969 117.362C232.576 117.362 232.234 117.552 231.943 117.932C231.652 118.299 231.424 118.762 231.259 119.319C231.094 119.864 230.999 120.389 230.974 120.896V124.183C230.974 124.424 231.056 124.544 231.221 124.544L232.38 124.506V125H228.485V124.506L229.093 124.544C229.258 124.544 229.34 124.424 229.34 124.183V117.856C229.34 117.603 229.258 117.476 229.093 117.476L228.409 117.514V117.02H231.088C231.063 117.096 231.037 117.223 231.012 117.4C230.987 117.565 230.974 117.729 230.974 117.894V118.825C231.265 118.116 231.588 117.609 231.943 117.305C232.31 116.988 232.728 116.83 233.197 116.83Z" fill="#514C4C"/>
<defs>
<linearGradient id="paint0_linear_384_46" x1="362.958" y1="344.497" x2="9.03093" y2="344.497" gradientUnits="userSpaceOnUse">
<stop stop-color="#20221D"/>
<stop offset="0.206" stop-color="#2A2A2A"/>
<stop offset="0.2623" stop-color="#2E2E2E"/>
<stop offset="0.4809" stop-color="#444344"/>
<stop offset="1" stop-color="#20221D"/>
</linearGradient>
</defs>
</svg>
